<svg xmlns="http://www.w3.org/2000/svg" viewBox="0 0 500 444.36"><defs><style>.cls-1{fill:#fb4f14;}</style></defs><title>blog</title><g id="Capa_2" data-name="Capa 2"><g id="Capa_1-2" data-name="Capa 1"><path class="cls-1" d="M349.48,72.14l78.3,78.3a8.49,8.49,0,0,1,0,12L238.19,352l-80.56,8.94A16.88,16.88,0,0,1,139,342.27l8.94-80.56L337.5,72.14a8.49,8.49,0,0,1,12,0ZM490.1,52.26,447.74,9.9a34,34,0,0,0-47.92,0L369.1,40.63a8.49,8.49,0,0,0,0,12l78.3,78.3a8.49,8.49,0,0,0,12,0l30.73-30.73A34,34,0,0,0,490.1,52.26ZM333.33,300.43V388.8H55.56V111H255a10.67,10.67,0,0,0,7.38-3l34.72-34.72a10.42,10.42,0,0,0-7.38-17.8H41.67A41.68,41.68,0,0,0,0,97.14V402.69a41.68,41.68,0,0,0,41.67,41.67H347.22a41.68,41.68,0,0,0,41.67-41.67v-137a10.44,10.44,0,0,0-17.8-7.38l-34.72,34.72A10.67,10.67,0,0,0,333.33,300.43Z"/></g></g></svg>