<svg xmlns="http://www.w3.org/2000/svg" viewBox="0 0 500 500"><defs><style>.cls-1{fill:#fb4f14;}</style></defs><title>email</title><g id="Capa_2" data-name="Capa 2"><g id="Capa_1-2" data-name="Capa 1"><path class="cls-1" d="M250,0C111.93,0,0,111.93,0,250S111.93,500,250,500,500,388.07,500,250,388.07,0,250,0ZM375,320.31a23.44,23.44,0,0,1-23.44,23.44H148.44A23.44,23.44,0,0,1,125,320.31v-99.8a2.92,2.92,0,0,1,4.74-2.29c10.94,8.5,25.44,19.29,75.24,55.47,10.3,7.52,27.69,23.34,45,23.24,17.43.15,35.16-16,45.07-23.24,49.8-36.18,64.26-47,75.2-55.52a2.94,2.94,0,0,1,4.74,2.29ZM375,189a11.68,11.68,0,0,1-4.49,9.23C355.57,209.91,350.63,214,285.84,261c-8.2,6-24.51,20.41-35.84,20.21-11.33.2-27.64-14.26-35.84-20.21-64.79-47-69.73-51.17-84.67-62.84A11.76,11.76,0,0,1,125,189v-9.28a23.44,23.44,0,0,1,23.44-23.44H351.56A23.44,23.44,0,0,1,375,179.69Z"/></g></g></svg>