<svg xmlns="http://www.w3.org/2000/svg" viewBox="0 0 500 500"><defs><style>.cls-1{fill:#fb4f14;}</style></defs><title>github</title><g id="Capa_2" data-name="Capa 2"><g id="Capa_1-2" data-name="Capa 1"><path class="cls-1" d="M250,0C111.93,0,0,111.93,0,250S111.93,500,250,500,500,388.07,500,250,388.07,0,250,0Zm41.46,374.69c-6.57,1.19-8.94-2.89-8.94-6.26,0-4.24.16-25.8.16-43.22,0-12.15-4-19.9-8.79-24,28.9-3.26,59.35-7.24,59.35-57.12,0-14.16-5.07-21.3-13.34-30.45,1.34-3.36,5.74-17.16-1.34-35.1-10.8-3.41-35.67,14-35.67,14a122.12,122.12,0,0,0-64.93,0s-24.87-17.32-35.67-14c-7.08,17.89-2.69,31.74-1.34,35.1-8.27,9.1-12.2,16.23-12.2,30.45,0,49.73,29.16,53.92,58.05,57.12-3.72,3.41-7.08,9.15-8.27,17.42-7.39,3.41-26.36,9.15-37.69-10.8a27.29,27.29,0,0,0-20-13.34c-12.67-.16-.83,8-.83,8,8.48,3.88,14.37,18.92,14.37,18.92,7.6,23.16,43.79,15.41,43.79,15.41,0,10.86.16,28.54.16,31.74,0,3.36-2.33,7.44-8.94,6.26-51.54-17.27-87.62-66.32-87.62-123.65,0-71.7,54.85-126.14,126.55-126.14S378.2,179.43,378.2,251.14C378.2,308.46,343.15,357.52,291.46,374.69ZM215,327c-1.55.36-2.89-.31-3-1.34-.16-1.19.88-2.17,2.38-2.53,1.5-.16,2.89.52,3,1.5S216.5,326.61,215,327Zm-7.44-.67c0,1-1.19,1.86-2.69,1.86-1.71.16-2.89-.67-2.89-1.86,0-1,1.19-1.86,2.69-1.86C206.21,324.28,207.56,325.11,207.56,326.3Zm-10.65-.83c-.31,1-1.86,1.55-3.21,1-1.55-.31-2.58-1.5-2.22-2.53h0c.36-1,1.86-1.55,3.21-1.19C196.24,323.25,197.22,324.44,196.91,325.47Zm-9.67-4.24c-.67.83-2.17.67-3.36-.52-1.19-1-1.5-2.53-.67-3.21.67-.83,2.22-.67,3.36.52C187.6,319,187.91,320.56,187.24,321.23Zm-7-7.08c-.67.52-2.07,0-2.89-1.19s-.83-2.53,0-3c.83-.67,2.17-.16,2.89,1S181,313.48,180.21,314.15Zm-5.12-7.65c-.67.67-1.86.31-2.69-.52-.88-1-1-2.17-.36-2.69.67-.67,1.86-.31,2.69.52C175.61,304.79,175.77,306,175.09,306.5Zm-5.22-5.74a1.54,1.54,0,0,1-2.22.36c-1-.52-1.55-1.34-1.19-2,.36-.52,1.19-.67,2.22-.36C169.72,299.26,170.23,300.09,169.87,300.76Z"/></g></g></svg>