<svg xmlns="http://www.w3.org/2000/svg" viewBox="0 0 500 388.82"><defs><style>.cls-1{fill:#fb4f14;}</style></defs><title>home</title><g id="Capa_2" data-name="Capa 2"><g id="Capa_1-2" data-name="Capa 1"><path class="cls-1" d="M243.37,100.87l-160,131.8V374.93a13.89,13.89,0,0,0,13.89,13.89l97.27-.25a13.89,13.89,0,0,0,13.82-13.89V291.6a13.89,13.89,0,0,1,13.89-13.89h55.55a13.89,13.89,0,0,1,13.89,13.89v83a13.89,13.89,0,0,0,13.84,13.93h0l97.23.27a13.89,13.89,0,0,0,13.89-13.89V232.58l-160-131.71a10.58,10.58,0,0,0-13.28,0Zm252.78,89.59-72.56-59.81V10.42A10.42,10.42,0,0,0,413.18,0H364.57a10.42,10.42,0,0,0-10.42,10.42v63L276.44,9.5a41.66,41.66,0,0,0-52.95,0L3.78,190.45a10.42,10.42,0,0,0-1.39,14.66h0L24.53,232a10.42,10.42,0,0,0,14.66,1.43h0L243.37,65.28a10.58,10.58,0,0,1,13.28,0L460.83,233.45a10.42,10.42,0,0,0,14.67-1.38h0l22.13-26.91a10.42,10.42,0,0,0-1.43-14.66l0,0Z"/></g></g></svg>