<svg xmlns="http://www.w3.org/2000/svg" viewBox="0 0 500 500"><defs><style>.cls-1{fill:#fb4f14;}</style></defs><title>telefono</title><g id="Capa_2" data-name="Capa 2"><g id="Capa_1-2" data-name="Capa 1"><path class="cls-1" d="M250,0C111.93,0,0,111.93,0,250S111.93,500,250,500,500,388.07,500,250,388.07,0,250,0ZM380.26,315.14l-11.72,50.78A11.72,11.72,0,0,1,357.11,375c-125.05,0-226.57-101.32-226.57-226.57A11.72,11.72,0,0,1,139.63,137l50.78-11.72a11.8,11.8,0,0,1,13.43,6.79l23.44,54.69a11.69,11.69,0,0,1-3.37,13.67l-29.59,24.22a181,181,0,0,0,86.52,86.52l24.22-29.59a11.72,11.72,0,0,1,13.67-3.37l54.69,23.44A11.86,11.86,0,0,1,380.26,315.14Z"/></g></g></svg>