<svg xmlns="http://www.w3.org/2000/svg" viewBox="0 0 500 500"><defs><style>.cls-1{fill:#fb4f14;}</style></defs><title>twitter</title><g id="Capa_2" data-name="Capa 2"><g id="Capa_1-2" data-name="Capa 1"><path class="cls-1" d="M250,0C111.93,0,0,111.93,0,250S111.93,500,250,500,500,388.07,500,250,388.07,0,250,0ZM372.27,187.3c.2,2.73.2,5.47.2,8.2C372.46,278.91,309,375,193,375a178.27,178.27,0,0,1-96.88-28.32,130.51,130.51,0,0,0,15.23.78,126.34,126.34,0,0,0,78.32-27,63.2,63.2,0,0,1-59-43.75,79.56,79.56,0,0,0,11.91,1,66.72,66.72,0,0,0,16.6-2.15,63.09,63.09,0,0,1-50.59-61.91v-.78a63.53,63.53,0,0,0,28.52,8,63.18,63.18,0,0,1-19.53-84.37,179.32,179.32,0,0,0,130.08,66,71.22,71.22,0,0,1-1.56-14.45,63.15,63.15,0,0,1,109.18-43.16,124.2,124.2,0,0,0,40-15.23,62.92,62.92,0,0,1-27.73,34.77,126.47,126.47,0,0,0,36.33-9.77A135.61,135.61,0,0,1,372.27,187.3Z"/></g></g></svg>