<svg xmlns="http://www.w3.org/2000/svg" viewBox="0 0 500 500"><defs><style>.cls-1{fill:#fb4f14;}</style></defs><title>whatsapp</title><g id="Capa_2" data-name="Capa 2"><g id="Capa_1-2" data-name="Capa 1"><path class="cls-1" d="M250,0C111.93,0,0,111.93,0,250S111.93,500,250,500,500,388.07,500,250,388.07,0,250,0Zm-.06,372.82h-.06a123.51,123.51,0,0,1-59.21-15.07L125,375l17.58-64.17a123.91,123.91,0,0,1,195-149.5C360.94,184.77,375,215.85,375,248.94,375,317.24,318.19,372.82,249.94,372.82Z"/><path class="cls-1" d="M306.42,274.83c-3.07-1.56-18.3-9-21.15-10s-4.91-1.56-7,1.56-8,10-9.82,12.17-3.63,2.34-6.7.78c-18.19-9.1-30.13-16.24-42.13-36.83-3.18-5.47,3.18-5.08,9.1-16.91a5.74,5.74,0,0,0-.28-5.41c-.78-1.56-7-16.8-9.54-23-2.51-6-5.08-5.19-7-5.3s-3.85-.11-5.92-.11a11.47,11.47,0,0,0-8.26,3.85c-2.85,3.13-10.83,10.6-10.83,25.84s11.1,30,12.61,32,21.82,33.31,52.9,46.76c19.64,8.48,27.34,9.21,37.17,7.76,6-.89,18.3-7.48,20.87-14.73s2.57-13.45,1.79-14.73S309.49,276.34,306.42,274.83Z"/></g></g></svg>