<svg xmlns="http://www.w3.org/2000/svg" viewBox="0 0 500 500"><defs><style>.cls-1{fill:#fb4f14;}</style></defs><title>youtube</title><g id="Capa_2" data-name="Capa 2"><g id="Capa_1-2" data-name="Capa 1"><polygon class="cls-1" points="224.43 287.35 289.77 250.18 224.43 213.01 224.43 287.35"/><path class="cls-1" d="M250,0C111.93,0,0,111.93,0,250S111.93,500,250,500,500,388.07,500,250,388.07,0,250,0ZM369.78,310.74a30.94,30.94,0,0,1-22.1,21.89c-19.5,5.26-97.67,5.26-97.67,5.26s-78.18,0-97.67-5.26a30.94,30.94,0,0,1-22.1-21.89C125,291.12,125,250.18,125,250.18s0-40.94,5.22-60.56a31.41,31.41,0,0,1,22.1-22.25c19.5-5.26,97.67-5.26,97.67-5.26s78.18,0,97.67,5.26a31.41,31.41,0,0,1,22.1,22.25C375,209.24,375,250.18,375,250.18S375,291.12,369.78,310.74Z"/></g></g></svg>