<svg xmlns="http://www.w3.org/2000/svg" viewBox="0 0 1274.1 326.97"><defs><style>.cls-1{fill:#fffaf0;}.cls-2{fill:#fb4f14;}</style></defs><title>blancolargomark</title><g id="Capa_2" data-name="Capa 2"><g id="fondo"><path class="cls-1" d="M576.85,192.23a6.6,6.6,0,0,1-2.12-5,7.25,7.25,0,0,1,7-7H686.24a6.6,6.6,0,0,1,5,2.12,6.87,6.87,0,0,1,2,4.88,6.88,6.88,0,0,1-7,7H581.72A6.87,6.87,0,0,1,576.85,192.23Z"/><path class="cls-1" d="M723.61,157.11a7.39,7.39,0,0,1-3.29-6.39,7.76,7.76,0,0,1,2.13-5.42,7,7,0,0,1,5.42-2.32,8.54,8.54,0,0,1,3.48.77A77.81,77.81,0,0,0,743.73,148a57.44,57.44,0,0,0,13.93,1.55q21.48,0,21.48-13.74,0-4.45-4.93-6.77t-16.16-5.22a145.62,145.62,0,0,1-18.87-5.61,33.13,33.13,0,0,1-12.77-8.8q-5.32-5.9-5.32-15.58,0-13.54,9.77-22.06t28-8.51a80.72,80.72,0,0,1,28.06,4.84A7.27,7.27,0,0,1,791,71a7.79,7.79,0,0,1,1.45,4.45,7.59,7.59,0,0,1-2.23,5.42,7.33,7.33,0,0,1-5.51,2.32,10.73,10.73,0,0,1-2.52-.39,74.17,74.17,0,0,0-22.06-3.48q-10.45,0-16.35,3.77t-5.9,9.77a8.94,8.94,0,0,0,5.42,8.51q5.41,2.71,16.83,5.22a162,162,0,0,1,18.58,5.71,30.76,30.76,0,0,1,12.29,8.8q5.12,6,5.13,16.06a25.56,25.56,0,0,1-9.77,20.51q-9.77,8.13-27.57,8.13A72,72,0,0,1,723.61,157.11Z"/><path class="cls-1" d="M824.81,140.28v-60H811.07a3.63,3.63,0,0,1-3.68-3.68,4.05,4.05,0,0,1,1.74-3.29l26.32-25.74a4.88,4.88,0,0,1,3.29-1.74A3.41,3.41,0,0,1,841.35,47a3.9,3.9,0,0,1,1.06,2.71V65.2h21.87a7.28,7.28,0,0,1,7.55,7.55,7.43,7.43,0,0,1-2.13,5.32,7.17,7.17,0,0,1-5.42,2.23H842.42v58.44q0,7.55,3.58,9.58a18,18,0,0,0,9,2,26.84,26.84,0,0,0,7.74-1.16l1.64-.39a10.67,10.67,0,0,1,2.23-.19,6.82,6.82,0,0,1,4.84,2,6.57,6.57,0,0,1,2.13,4.93q0,4.45-4.45,6.77a37.87,37.87,0,0,1-16.06,3.48Q824.8,165.82,824.81,140.28Z"/><path class="cls-1" d="M908.11,160.79a32.69,32.69,0,0,1-12-13.74,43.83,43.83,0,0,1-4.16-19.16v-55a8.26,8.26,0,0,1,2.61-6.19,8.75,8.75,0,0,1,6.29-2.52,8.59,8.59,0,0,1,8.71,8.71v53q0,23.61,21.28,23.61a30.78,30.78,0,0,0,17.32-5A62.69,62.69,0,0,0,962.58,131v-58a8.26,8.26,0,0,1,2.61-6.19,8.75,8.75,0,0,1,6.29-2.52,8.59,8.59,0,0,1,8.71,8.71v83a8.75,8.75,0,0,1-2.52,6.29,8.26,8.26,0,0,1-6.19,2.61,8.92,8.92,0,0,1-8.9-8.9V148a64.33,64.33,0,0,1-15.87,13q-8.52,4.83-20.12,4.84A33.46,33.46,0,0,1,908.11,160.79Z"/><path class="cls-1" d="M1099.76,24.28a8.26,8.26,0,0,0-6.19-2.61,8.75,8.75,0,0,0-6.29,2.52,8.49,8.49,0,0,0-2.61,6.39V78q-14.13-14.7-33.09-14.71a45.36,45.36,0,0,0-22.74,6.1,46.24,46.24,0,0,0-17.41,17.8q-6.68,11.71-6.68,27.38t6.68,27.38a46.22,46.22,0,0,0,17.41,17.8,45.36,45.36,0,0,0,22.74,6.1q19,0,33.09-14.71v5a8.25,8.25,0,0,0,2.61,6.19,8.75,8.75,0,0,0,6.29,2.52,8.59,8.59,0,0,0,8.71-8.71V30.56A8.75,8.75,0,0,0,1099.76,24.28Zm-15.09,110.58a47.78,47.78,0,0,1-13.84,10.55,36.54,36.54,0,0,1-16.74,4q-14.32,0-23-9.09t-8.71-25.74q0-16.64,8.71-25.73t23-9.09a36.58,36.58,0,0,1,16.74,4,47.88,47.88,0,0,1,13.84,10.55Z"/><path class="cls-1" d="M1134.2,42.17a9.5,9.5,0,0,1-2.9-7v-.77a9.91,9.91,0,0,1,9.87-9.87h1.16a9.91,9.91,0,0,1,9.87,9.87v.77a9.91,9.91,0,0,1-9.87,9.87h-1.16A9.5,9.5,0,0,1,1134.2,42.17Z"/><path class="cls-1" d="M1135.36,162.33a8.41,8.41,0,0,1-2.52-6.19v-83a8.74,8.74,0,0,1,2.52-6.29,8.25,8.25,0,0,1,6.19-2.61,8.61,8.61,0,0,1,8.9,8.9v83a8.25,8.25,0,0,1-2.61,6.19,8.75,8.75,0,0,1-6.29,2.52A8.42,8.42,0,0,1,1135.36,162.33Z"/><path class="cls-1" d="M1267.91,87.74a44,44,0,0,0-17.41-18.09q-11.23-6.39-25.93-6.39-14.9,0-26.12,6.39a43.4,43.4,0,0,0-17.32,18.09q-6.09,11.71-6.09,26.8t6.09,26.8a43.38,43.38,0,0,0,17.32,18.09q11.22,6.39,26.12,6.39,14.7,0,25.93-6.39a44,44,0,0,0,17.41-18.09q6.19-11.7,6.19-26.8T1267.91,87.74Zm-16.16,46.73a29.54,29.54,0,0,1-12,11.61,33.17,33.17,0,0,1-15.19,3.68,33.56,33.56,0,0,1-15.38-3.68,28.93,28.93,0,0,1-11.9-11.61q-4.64-7.93-4.64-20.12,0-12,4.64-19.93a28.33,28.33,0,0,1,11.9-11.51,34.33,34.33,0,0,1,15.38-3.58,33.93,33.93,0,0,1,15.19,3.58,28.92,28.92,0,0,1,12,11.51q4.74,7.94,4.74,19.93Q1256.49,126.54,1251.75,134.47Z"/><path class="cls-1" d="M3.92,159.16A12.85,12.85,0,0,1,0,149.72V23.79A9.57,9.57,0,0,1,2.76,16.9,9,9,0,0,1,9.54,14a9.4,9.4,0,0,1,6.89,2.86,9.39,9.39,0,0,1,2.86,6.89v120H88.62a9.77,9.77,0,0,1,9.75,9.75,9,9,0,0,1-2.86,6.78,9.58,9.58,0,0,1-6.89,2.76H13.36A12.85,12.85,0,0,1,3.92,159.16Z"/><path class="cls-1" d="M328.81,154.39l-52.36-127a10.18,10.18,0,0,1-.64-3.6,9.83,9.83,0,0,1,2.54-7.1,9.25,9.25,0,0,1,7-2.65,8.9,8.9,0,0,1,5.41,1.8,11.39,11.39,0,0,1,3.71,4.77l49.82,124.23L394.11,20.61a11.37,11.37,0,0,1,3.71-4.77,8.89,8.89,0,0,1,5.41-1.8,9.25,9.25,0,0,1,7,2.65,9.83,9.83,0,0,1,2.54,7.1,10.18,10.18,0,0,1-.64,3.6l-52.36,127q-4.45,9.75-13.14,9.75H342Q333.26,164.14,328.81,154.39Z"/><path class="cls-1" d="M441.17,160.32a9.21,9.21,0,0,1-2.76-6.78V24.85A9.57,9.57,0,0,1,441.17,18,9,9,0,0,1,448,15.1h50q22.68,0,35.09,10.39t12.4,28q0,12.3-5.83,20.46a35.88,35.88,0,0,1-14.95,12.19,46.89,46.89,0,0,1,20.88,12.93q8.16,8.9,8.16,22.47,0,19.51-13.14,30.53t-41.34,11H448A9.21,9.21,0,0,1,441.17,160.32Zm51.73-81.2q18.87,0,26.5-6.36T527,55a18.69,18.69,0,0,0-8.16-15.9q-8.16-5.93-22.37-5.94H457.7v46Zm4.45,65.93q20.56,0,29.15-6.36t8.59-18q0-24.17-37.52-24.17H457.7v48.55Z"/><g id="g901-6-8"><path id="path903-2-7" class="cls-2" d="M201.64,106.66c-1.47-2.33-3.12-4.58-4.36-7-.73-1.43-2.11-3.43-1.18-4.79s3.39-1.05,4.78-.62c10.53,3.31,21.06,6.65,31.44,10.4,8.54,3.08,13.13,10.41,12.34,18.57-.81,8.37-7.12,14.61-15.91,16.55a10.47,10.47,0,0,0-6.1,4.32c-4.8,8-12.33,11.89-20.61,9.9s-13.74-9.12-13.86-18.17q-.2-15.95.08-31.9c0-1.66.34-4.45,2.07-5s3.23,1.87,4.53,3.13c1.85,1.79,3.39,3.89,5.06,5.85l1.74-1.26"/></g><g id="g905-9-9"><path id="path907-1-2" class="cls-2" d="M173.32,107.85c1.77-2.12,3.4-4.38,5.35-6.31,1.14-1.13,2.61-3.06,4.2-2.6s2,2.9,2.06,4.35c.09,11,.14,22.07-.22,33.1-.31,9.07-5.88,15.69-13.88,17.45-8.22,1.8-16.1-2.29-20.65-10a10.47,10.47,0,0,0-6-4.48c-9.1-2.1-15.11-8.07-15.76-16.56s4.46-15.88,13-18.77q15.12-5.09,30.39-9.74c1.6-.48,4.34-1,5.35.45s-.79,3.64-1.59,5.27c-1.13,2.3-2.66,4.42-4,6.61l1.73,1.27"/></g><g id="g909-2-0"><path id="path911-7-2" class="cls-2" d="M195.29,88.29A8.63,8.63,0,1,1,178.09,87a8.63,8.63,0,0,1,17.21,1.26"/></g><g id="g913-0-3"><path id="path915-9-7" class="cls-2" d="M186.84,12.66a75.37,75.37,0,0,0-75.58,73.9c-.91,42.54,35.53,77,74.92,76.54,41.65-.5,75-33.35,76-73.76,1-41.67-34.65-77.93-75.29-76.69m73.9,27.69a26.76,26.76,0,0,1,2.81,4.59c19.19,33.27,12.62,77.49-14.53,104.92-30.2,30.53-73.5,30.59-100.73,17.32-34.48-16.8-53.19-53.75-48.69-92.11C103.51,41.62,133.24,8.42,167.19,2c36.13-6.84,66.2,3.73,89.42,32.55a46.35,46.35,0,0,1,4.13,5.8"/></g><g id="g917-3-5"><path id="path919-6-9" class="cls-2" d="M185.56,63.75c-.17,2.75-.15,5.54-.58,8.26-.25,1.58-.29,4-1.85,4.58s-3.36-1.13-4.24-2.29c-6.6-8.84-13.18-17.71-19.4-26.82-5.12-7.49-4.55-16.12.86-22.27,5.56-6.31,14.33-7.68,22.59-4.11a10.47,10.47,0,0,0,7.48.07c8.58-3.69,17-2.42,22.51,4s5.8,15.44.6,22.83q-9.18,13-18.74,25.82c-1,1.33-2.89,3.41-4.58,2.8s-1.52-3.4-1.84-5.19c-.45-2.53-.47-5.13-.67-7.7Z"/></g><g id="g921-0-2"><path id="path923-6-2" class="cls-2" d="M209.22,79.36c-2.68.68-5.32,1.56-8,2-1.59.25-3.91,1-4.93-.35s0-3.54.88-4.73c6.39-9,12.81-18,19.56-26.7,5.56-7.17,14-9.29,21.47-6,7.72,3.35,11.72,11.27,10.87,20.23a10.46,10.46,0,0,0,2.23,7.14c6.15,7,7.52,15.39,3.09,22.65s-12.91,10.26-21.55,7.59q-15.24-4.72-30.34-9.89c-1.57-.54-4.13-1.69-4.08-3.49s2.77-2.5,4.37-3.34c2.27-1.2,4.74-2,7.13-3l-.66-2"/></g><g id="g925-2-8"><path id="path927-6-9" class="cls-2" d="M163.47,81.28c2.56,1,5.21,1.89,7.66,3.15,1.42.74,3.72,1.55,3.76,3.2s-2.13,2.84-3.51,3.3c-10.47,3.48-21,6.93-31.57,10-8.72,2.5-16.74-.76-20.88-7.84-4.24-7.26-2.78-16,3.21-22.73a10.46,10.46,0,0,0,2.42-7.07c-.8-9.3,3-16.85,10.91-20.08s16.49-.64,21.88,6.62Q166.84,62.59,176,75.69c.95,1.37,2.33,3.81,1.22,5.23s-3.71.37-5.5.11c-2.54-.37-5-1.17-7.53-1.79l-.68,2"/></g><path class="cls-2" d="M58,326V276.88h-.25L36.9,326H32L11.16,276.88h-.25V326H5.6V266.13h6.52l22.21,52.67h.25l22.16-52.67h6.56V326Z"/><path class="cls-2" d="M134.18,307.67H109L102.39,326h-6l22.41-59.89h5.64L146.8,326h-6Zm-23.45-4.9h21.75l-10.75-29.63h-.25Z"/><path class="cls-2" d="M185.56,326h-5.64V266.13H201c11.7,0,19.17,6.85,19.17,17.51,0,8.47-4.81,14.86-12.83,16.93L221.92,326h-6.64L201.5,301.49H185.56Zm0-29.55h15c8.72,0,13.78-4.65,13.78-12.66s-5.27-12.62-14-12.62H185.56Z"/><path class="cls-2" d="M256,326V266.13h5.64v31h.33l28.47-31h7.18L273,292.6,300,326h-7.26L269,296.63l-7.39,8V326Z"/><path class="cls-2" d="M368.8,326H332.65V266.13H368.8v5.15H338.3v21.54h29v5.06h-29v23h30.5Z"/><path class="cls-2" d="M420.72,326V271.27H401v-5.15H446.2v5.15h-19.8V326Z"/><path class="cls-2" d="M479.86,326V266.13h5.64V326Z"/><path class="cls-2" d="M523.23,326V266.13h5.6l35.11,50h.29v-50h5.6V326h-5.48L529.13,276h-.29V326Z"/><path class="cls-2" d="M632.05,327c-16.23,0-26.89-12.37-26.89-31.25,0-18.55,10.54-30.55,26.89-30.55,12.58,0,22.25,7.51,24.49,19h-5.89c-2.45-8.55-9.46-13.7-18.59-13.7-13,0-21.08,9.67-21.08,25.28,0,15.81,8.26,26,21.08,26,11.58,0,19.22-7.39,19.22-18.68v-2.12H632.68v-5h24.24v5.77C656.92,317.51,647.62,327,632.05,327Z"/><path class="cls-2" d="M788.86,326V276.88h-.25L767.77,326h-4.94L742,276.88h-.25V326h-5.31V266.13H743l22.2,52.67h.25l22.16-52.67h6.56V326Z"/><path class="cls-2" d="M865.05,307.67H839.9L833.26,326h-6l22.41-59.89h5.64L877.67,326h-6Zm-23.45-4.9h21.75L852.6,273.14h-.25Z"/><path class="cls-2" d="M910.79,326V266.13h5.6l35.11,50h.29v-50h5.6V326h-5.48L916.69,276h-.29V326Z"/><path class="cls-2" d="M1028.29,307.67h-25.15L996.5,326h-6l22.41-59.89h5.64L1040.91,326h-6Zm-23.45-4.9h21.75l-10.75-29.63h-.25Z"/><path class="cls-2" d="M1096.6,327c-16.23,0-26.89-12.37-26.89-31.25,0-18.55,10.54-30.55,26.89-30.55,12.58,0,22.25,7.51,24.49,19h-5.89c-2.45-8.55-9.46-13.7-18.59-13.7-13,0-21.08,9.67-21.08,25.28,0,15.81,8.26,26,21.08,26,11.58,0,19.22-7.39,19.22-18.68v-2.12h-18.59v-5h24.24v5.77C1121.46,317.51,1112.17,327,1096.6,327Z"/><path class="cls-2" d="M1193.26,326h-36.15V266.13h36.15v5.15h-30.51v21.54h29v5.06h-29v23h30.51Z"/><path class="cls-2" d="M1235.1,326h-5.64V266.13h21.13c11.7,0,19.17,6.85,19.17,17.51,0,8.47-4.81,14.86-12.83,16.93L1271.46,326h-6.64L1251,301.49H1235.1Zm0-29.55h15c8.72,0,13.78-4.65,13.78-12.66s-5.27-12.62-14-12.62H1235.1Z"/></g></g></svg>