<svg xmlns="http://www.w3.org/2000/svg" viewBox="0 0 281.47 198.54"><defs><style>.cls-1{fill:#fff;}</style></defs><title>zen</title><g id="Capa_2" data-name="Capa 2"><g id="Capa_1-2" data-name="Capa 1"><path d="M265.81,164.85a33,33,0,0,0,11.64,2.56,17,17,0,0,1,4,1.3c-.94,1.08-1.69,2.48-2.86,3.18-5.25,3.11-11.1,3.25-17,2.87-6.42-.41-12.13-3.06-17.76-5.91-1.27-.64-2.5-1.35-4.2-2.28.53,1.14.85,1.85,1.19,2.56,5.45,11.2.65,22.78-11.19,26.72a60.58,60.58,0,0,1-22.48,2.54c-19.61-1-39.2-2.91-58.27-7.65-10-2.48-19.52-6.88-29.26-10.43-1-.36-1.94-.77-2.91-1.15l-.39.53c2.52,1.91,5,3.9,7.58,5.7s5.33,3.43,8.58,5.51c-3,.67-5.52,1.44-8.06,1.75-16.62,2-33.23,4-49.89,5.64a61,61,0,0,1-21-1.87C40,192.92,34.52,180.67,41,168.14c.12-.24.2-.5.46-1.18-3.95,1.78-7.54,3.34-11.07,5-7.71,3.66-15.69,3.75-23.74,1.6a23,23,0,0,1-5.77-3c-.5-.31-1-1.41-.85-1.82a2.71,2.71,0,0,1,1.84-1.24c3.14-.47,6.32-.7,9.45-1.19A29.78,29.78,0,0,0,15.61,165c-1-2.1-1.93-4-2.69-5.89-2-5,.68-9,3-12.91a2.33,2.33,0,0,1,2.2-.57c4.64,2.32,9.65,1.42,14.49,1.76a15.24,15.24,0,0,1,8.7,3.47,2.87,2.87,0,0,0,4,.24c4.78-3.08,9.43-6.33,13-10.82,6.39-8,12.92-15.87,19-24.11,2.32-3.16,3.74-7.08,5.06-10.83,1.69-4.8,2.86-9.79,4.72-14.7l1.37,5.62.53,0c.1-1.56.26-3.12.28-4.68.08-5.73.78-11.33,3.29-16.58C94.3,71.36,97,68.8,101,68.53c7.25-.49,14.51-.68,21.77-.92,2.79-.1,5.58,0,8.39-.33-7.7-2.11-15.65-1.92-23.69-2.89.51-.29,1-.62,1.54-.86q7.48-3.3,15-6.58c4.24-1.85,5.53-3.89,5.32-8.46-.06-1.35-.14-2.7-.25-4.6l4.4,2.8a9,9,0,0,0-.79-1.73c-5.28-6.3-6.47-14-7.58-21.76-1.26-8.84,2.46-15.3,8.91-20.61,4.1-3.37,7.56-3.42,11.81-.33,6.1,4.44,10.47,10.13,11.35,17.86.28,2.44-.35,5-.44,7.46,0,.63.23,1.68.63,1.84,2.94,1.14,3.09,3.5,2.74,6-.38,2.74-1.7,5.2-4.54,5.61s-3.32,1.89-3.11,4.32a42.42,42.42,0,0,1,.06,5.91,4.16,4.16,0,0,0,2.6,4.35c7.68,3.58,15.27,7.4,23.1,10.64s12.44,8.58,14.56,16.52c1.69,6.36,3.73,12.65,5.16,19.06,1.86,8.33,6.18,15.22,11.44,21.69,4.11,5.06,8.19,10.14,12.32,15.18a52.07,52.07,0,0,0,15.15,12.53,2.24,2.24,0,0,0,3-.17c4-3.42,8.71-4.12,13.8-4a32.85,32.85,0,0,0,8.44-1.27c2-.51,3.19-.23,4.29,1.65,2.94,5,4,10,.46,15.13A15.19,15.19,0,0,0,265.81,164.85Zm-164.75-71-.4.13a16.47,16.47,0,0,0,.25,1.69,23.3,23.3,0,0,1-1.25,15.65c-4.76,10.93-10.08,21.38-19.68,29-4.51,3.57-9,7.12-13.57,10.67l-4.52,3.53a1.12,1.12,0,0,0,1,.15c13.39-2.84,26.8-5.56,40.15-8.59,5.5-1.25,10.5-1.21,15.27,2.24,1.77,1.28,4,1.94,6,2.88a47.7,47.7,0,0,0-6.32-7.27c-2.19-2.09-3.62-4.33-3.37-7.55a22.22,22.22,0,0,0-.59-4.95c-1.49-9.82-5.19-18.94-8.94-28C103.8,100.19,102.41,97,101.06,93.85Zm79.52.36L180,94c-3,7.65-6.22,15.23-9,23a73.65,73.65,0,0,0-4.48,23.33c-.06,2.37.81,3.93,3.31,4.37s4.88.93,7.32,1.39c9.6,1.8,19.22,3.5,28.79,5.42,4.41.89,8.74,2.19,13.11,3.31a56,56,0,0,0-7.82-6.61c-11.34-7.95-20.87-17.49-26.59-30.32-3.06-6.87-6.89-13.65-4.36-21.67A12.15,12.15,0,0,0,180.58,94.21Zm-163,61c0,2.26,3.36,5.54,4.81,4.48a8.42,8.42,0,0,0,3.13-4.13c.18-.66-2-2-3.05-3a1.91,1.91,0,0,0-.62-.27C18.6,151.12,17.66,151.76,17.59,155.23Zm246.63-.46c-.76-1.08-1.89-3.19-2.23-3.07a30.68,30.68,0,0,0-5.89,3.09,1.7,1.7,0,0,0-.16,1.64c1.27,1.26,2.54,2.8,4.12,3.39C261.3,160.29,263.88,156.68,264.21,154.77Z"/><path d="M123.86,30l3.31,10.46c-3,.49-5.58-1.93-6.21-5.7C120.45,31.68,121.14,30.49,123.86,30Z"/><path class="cls-1" d="M101.06,93.85c1.35,3.18,2.74,6.34,4.06,9.53,3.75,9.1,7.45,18.22,8.94,28a22.22,22.22,0,0,1,.59,4.95c-.25,3.22,1.18,5.46,3.37,7.55a47.7,47.7,0,0,1,6.32,7.27c-2-.94-4.22-1.6-6-2.88-4.77-3.45-9.77-3.49-15.27-2.24-13.34,3-26.76,5.75-40.15,8.59a1.12,1.12,0,0,1-1-.15L66.42,151c4.53-3.55,9.06-7.1,13.57-10.67,9.6-7.6,14.92-18.05,19.68-29a23.3,23.3,0,0,0,1.25-15.65,16.47,16.47,0,0,1-.25-1.69Z"/><path class="cls-1" d="M180.58,94.21a12.15,12.15,0,0,1-.29,2c-2.53,8,1.3,14.81,4.36,21.67,5.72,12.83,15.25,22.37,26.59,30.32a56,56,0,0,1,7.82,6.61c-4.37-1.12-8.7-2.42-13.11-3.31-9.57-1.92-19.19-3.62-28.79-5.42-2.44-.46-4.88-1-7.32-1.39s-3.37-2-3.31-4.37A73.65,73.65,0,0,1,171,117c2.81-7.73,6-15.31,9-23Z"/><path class="cls-1" d="M17.59,155.23c.07-3.47,1-4.11,4.27-2.89a1.91,1.91,0,0,1,.62.27c1.1,1,3.24,2.31,3.05,3a8.42,8.42,0,0,1-3.13,4.13C20.94,160.77,17.54,157.49,17.59,155.23Z"/><path class="cls-1" d="M264.21,154.77c-.33,1.92-2.91,5.52-4.17,5.05-1.58-.59-2.85-2.13-4.12-3.39a1.7,1.7,0,0,1,.16-1.64A30.68,30.68,0,0,1,262,151.7C262.32,151.58,263.45,153.69,264.21,154.77Z"/></g></g></svg>