<svg xmlns="http://www.w3.org/2000/svg" viewBox="0 0 1079.98 161.35"><defs><style>.cls-1{fill:#fb4f14;}</style></defs><title>barraLateralH</title><g id="Capa_2" data-name="Capa 2"><g id="Capa_1-2" data-name="Capa 1"><path class="cls-1" d="M243.28.3l836.7,1-.2,160-837.71-1a87.55,87.55,0,0,0,11.82-5.09,83.92,83.92,0,0,0,36.88-37.76,85.83,85.83,0,0,0,8.27-37.11,84.09,84.09,0,0,0-24.93-60.56A85.13,85.13,0,0,0,243.28.3Z"/><path class="cls-1" d="M.2,0,183.83.23a78,78,0,0,0-11.47,5.4c-.24.14-.48.26-.72.39a23.37,23.37,0,0,0-3.74,2.33,47.45,47.45,0,0,0-5.65,4c-27.56,22.15-38.18,51.21-31.58,86.35,5,26.68,27.49,51.42,53.72,61.49L0,160Z"/><g id="g901-6-8"><path id="path903-2-7" class="cls-1" d="M227.91,97.7c-1.35-2.12-2.84-4.16-4-6.38-.66-1.3-1.92-3.11-1.08-4.35s3.09-1,4.35-.56c9.59,3,19.17,6,28.62,9.44,7.77,2.79,12,9.45,11.23,16.86-.74,7.6-6.49,13.26-14.49,15a9.51,9.51,0,0,0-5.55,3.92c-4.37,7.27-11.23,10.79-18.76,9s-12.51-8.28-12.62-16.49q-.18-14.48.07-29c0-1.51.31-4,1.89-4.5s2.94,1.7,4.12,2.84c1.68,1.62,3.09,3.52,4.61,5.31l1.58-1.14"/></g><g id="g905-9-9"><path id="path907-1-2" class="cls-1" d="M202.12,98.78c1.61-1.93,3.1-4,4.88-5.73,1-1,2.38-2.78,3.82-2.35s1.86,2.63,1.87,4c.08,10,.13,20-.21,30-.28,8.22-5.35,14.25-12.64,15.84-7.48,1.64-14.66-2.07-18.8-9.12a9.57,9.57,0,0,0-5.46-4.07c-8.28-1.9-13.76-7.32-14.35-15s4.06-14.41,11.87-17q13.76-4.62,27.67-8.84c1.45-.44,4-.95,4.88.41s-.72,3.31-1.45,4.78c-1,2.09-2.42,4-3.66,6l1.58,1.15"/></g><g id="g909-2-0"><path id="path911-7-2" class="cls-1" d="M222.13,81A7.76,7.76,0,0,1,214,88.43l-.33,0a7.76,7.76,0,0,1-7.26-8.52A7.86,7.86,0,0,1,222.12,81"/></g><g id="g913-0-3"><path id="path915-9-7" class="cls-1" d="M214.43,12.36a68.52,68.52,0,0,0-68.82,67.09c-.83,38.62,32.35,69.92,68.21,69.49,37.92-.45,68.31-30.27,69.16-67,.87-37.83-31.54-70.75-68.55-69.62M281.71,37.5a24.48,24.48,0,0,1,2.55,4.17C301.74,71.88,295.75,112,271,136.92c-27.5,27.71-66.92,27.77-91.71,15.72C147.94,137.39,130.9,103.85,135,69c3.56-30.38,30.63-60.51,61.54-66.34,32.89-6.21,60.28,3.38,81.41,29.55a42.16,42.16,0,0,1,3.77,5.27"/></g><g id="g917-3-5"><path id="path919-6-9" class="cls-1" d="M213.26,58.67c-.15,2.5-.14,5-.53,7.5-.23,1.44-.27,3.65-1.68,4.15s-3.06-1-3.86-2.08c-6-8-12-16.08-17.67-24.35-4.66-6.8-4.14-14.64.79-20.22s13.05-7,20.57-3.73a9.58,9.58,0,0,0,6.81.06c7.81-3.36,15.44-2.2,20.49,3.66s5.28,14,.54,20.73q-8.36,11.84-17.06,23.44c-.91,1.21-2.63,3.09-4.17,2.55s-1.39-3.09-1.67-4.71c-.41-2.3-.43-4.66-.61-7Z"/></g><g id="g921-0-2"><path id="path923-6-2" class="cls-1" d="M234.81,72.91c-2.44.62-4.85,1.41-7.32,1.8-1.44.23-3.56.87-4.49-.32s0-3.22.8-4.3c5.81-8.17,11.66-16.32,17.81-24.24,5.06-6.51,12.7-8.43,19.55-5.47,7,3,10.67,10.24,9.89,18.36a9.48,9.48,0,0,0,2,6.48c5.6,6.38,6.85,14,2.81,20.56s-11.76,9.32-19.63,6.89q-13.88-4.29-27.63-9c-1.43-.49-3.76-1.53-3.71-3.17s2.52-2.27,4-3c2.07-1.09,4.32-1.85,6.49-2.74l-.6-1.85"/></g><g id="g925-2-8"><path id="path927-6-9" class="cls-1" d="M193.16,74.65c2.33.93,4.75,1.72,7,2.85,1.3.67,3.38,1.4,3.43,2.9s-1.94,2.57-3.2,3c-9.53,3.16-19.09,6.29-28.75,9-7.94,2.27-15.24-.69-19-7.12-3.87-6.59-2.52-14.54,2.92-20.64a9.48,9.48,0,0,0,2.21-6.42C157,49.81,160.5,43,167.66,40s15-.58,19.92,6q8.64,11.63,16.95,23.52c.87,1.24,2.12,3.46,1.11,4.75s-3.38.34-5,.1c-2.32-.34-4.57-1.06-6.86-1.62l-.62,1.85"/></g></g></g></svg>