<svg xmlns="http://www.w3.org/2000/svg" viewBox="0 0 257 266.56"><defs><style>.cls-1{fill:#024;}.cls-2,.cls-3{fill:#fb4f14;}.cls-3{font-size:44.08px;font-family:Nunito-SemiBold, Nunito SemiBold;}.cls-4{letter-spacing:-0.01em;}.cls-5{letter-spacing:-0.02em;}</style></defs><title>cortoazulmm</title><g id="Capa_2" data-name="Capa 2"><g id="Capa_1-2" data-name="Capa 1"><g id="Capa_2-2" data-name="Capa 2"><g id="negro"><path class="cls-1" d="M1.53,151.29a3.42,3.42,0,0,1-1.52-3,3.59,3.59,0,0,1,1-2.51,3.24,3.24,0,0,1,2.51-1.06,4,4,0,0,1,1.61.36,36,36,0,0,0,5.73,2,26.58,26.58,0,0,0,6.45.72q9.94,0,9.94-6.36a3.39,3.39,0,0,0-2.28-3.13,46.7,46.7,0,0,0-7.48-2.42,67.4,67.4,0,0,1-8.73-2.6,15.33,15.33,0,0,1-5.91-4.07A10.38,10.38,0,0,1,.36,122,12.92,12.92,0,0,1,4.88,111.8q4.52-3.94,13-3.94a37.36,37.36,0,0,1,13,2.24,3.36,3.36,0,0,1,1.93,1.34,3.61,3.61,0,0,1,.67,2.06,3.51,3.51,0,0,1-1,2.51,3.39,3.39,0,0,1-2.55,1.07,5,5,0,0,1-1.17-.18,34.33,34.33,0,0,0-10.21-1.61A14,14,0,0,0,10.9,117a5.21,5.21,0,0,0-2.73,4.52,4.14,4.14,0,0,0,2.48,3.94,35.62,35.62,0,0,0,7.79,2.42,75,75,0,0,1,8.6,2.64,14.24,14.24,0,0,1,5.69,4.07,11.08,11.08,0,0,1,2.37,7.43,11.83,11.83,0,0,1-4.52,9.49q-4.52,3.76-12.76,3.76A33.32,33.32,0,0,1,1.53,151.29Z"/><path class="cls-1" d="M48.13,143.37V115.8H42a1.68,1.68,0,0,1-1.7-1.65s0,0,0,0a1.86,1.86,0,0,1,.81-1.52l12.18-11.86a2.26,2.26,0,0,1,1.52-.8,1.58,1.58,0,0,1,1.19.55,1.79,1.79,0,0,1,.49,1.25v7.13H66.82a3.41,3.41,0,0,1,3.57,3.22q0,.13,0,.25a3.37,3.37,0,0,1-1,2.45,3.44,3.44,0,0,1-2.56,1H56.46v26.87q0,3.47,1.69,4.4a8.72,8.72,0,0,0,4.26.92,13,13,0,0,0,3.66-.53l.78-.18a5.19,5.19,0,0,1,1.05-.09,3.27,3.27,0,0,1,2.29.92,3,3,0,0,1,1,2.27,3.36,3.36,0,0,1-2.11,3.11,18.35,18.35,0,0,1-7.6,1.6Q48.13,155.11,48.13,143.37Z"/><path class="cls-1" d="M86.66,153a15.21,15.21,0,0,1-5.58-6.39,20.39,20.39,0,0,1-1.94-8.91V112.36a3.91,3.91,0,0,1,1.23-2.93,4.14,4.14,0,0,1,3-1.19,4.06,4.06,0,0,1,4.12,4s0,.08,0,.11v24.49q0,10.92,9.85,10.92a14.24,14.24,0,0,0,8-2.31,29,29,0,0,0,6.67-6.24V111.94a3.91,3.91,0,0,1,1.23-2.93,4.14,4.14,0,0,1,3-1.19,4.06,4.06,0,0,1,4.12,4s0,.08,0,.11v39.26a4.14,4.14,0,0,1-1.19,3,3.91,3.91,0,0,1-2.93,1.23,4.22,4.22,0,0,1-4.21-4.21v-4.12a29.93,29.93,0,0,1-7.38,6,18.7,18.7,0,0,1-9.36,2.25A15.57,15.57,0,0,1,86.66,153Z"/><path class="cls-1" d="M175.61,89.81a4,4,0,0,0-2.93-1.21,4.19,4.19,0,0,0-3,1.17,3.89,3.89,0,0,0-1.23,3v22a21.28,21.28,0,0,0-15.65-6.81,21.78,21.78,0,0,0-19,11.06,27,27,0,0,0,0,25.34,21.78,21.78,0,0,0,19,11.06,21.21,21.21,0,0,0,15.65-6.81v2.31a3.78,3.78,0,0,0,1.23,2.86,4.19,4.19,0,0,0,3,1.17A4,4,0,0,0,176.8,151s0-.07,0-.11V92.72A4,4,0,0,0,175.61,89.81ZM168.49,141a22.11,22.11,0,0,1-6.41,4.88,16.91,16.91,0,0,1-7.75,1.85,14,14,0,0,1-10.64-4.21q-4-4.21-4.06-11.93t4-11.91a14.06,14.06,0,0,1,10.64-4.21,16.93,16.93,0,0,1,7.75,1.85,22.16,22.16,0,0,1,6.41,4.88Z"/><path class="cls-1" d="M191.57,98.24a4.54,4.54,0,0,1-1.35-3.32v-.36a4.65,4.65,0,0,1,4.59-4.68h.54a4.65,4.65,0,0,1,4.59,4.68v.36a4.65,4.65,0,0,1-4.59,4.68h-.54A4.38,4.38,0,0,1,191.57,98.24Z"/><path class="cls-1" d="M191.87,154.2a4,4,0,0,1-1.19-2.93V112a4.13,4.13,0,0,1,1.19-3,3.9,3.9,0,0,1,2.93-1.23,4.07,4.07,0,0,1,4.21,3.93q0,.14,0,.28v39.26a3.9,3.9,0,0,1-1.23,2.93,4.14,4.14,0,0,1-3,1.19A4,4,0,0,1,191.87,154.2Z"/><path class="cls-1" d="M253.44,119.19a20.36,20.36,0,0,0-8.06-8.37,26,26,0,0,0-24.09,0,20.09,20.09,0,0,0-8,8.37,28.7,28.7,0,0,0,0,24.81,20.08,20.08,0,0,0,8,8.37,26,26,0,0,0,24.09,0,20.36,20.36,0,0,0,8.06-8.37,28.28,28.28,0,0,0,0-24.81ZM246,140.82a13.67,13.67,0,0,1-5.55,5.37,15.35,15.35,0,0,1-7,1.7,15.53,15.53,0,0,1-7.12-1.7,13.39,13.39,0,0,1-5.49-5.37,18.23,18.23,0,0,1-2.15-9.31,18,18,0,0,1,2.15-9.22,13.11,13.11,0,0,1,5.51-5.33,15.89,15.89,0,0,1,7.12-1.66,15.7,15.7,0,0,1,7,1.66,13.38,13.38,0,0,1,5.55,5.33,17.74,17.74,0,0,1,2.19,9.22,18.05,18.05,0,0,1-2.21,9.31Z"/><path class="cls-1" d="M1.79,73.4A5.86,5.86,0,0,1,0,69.1V11.69A4.36,4.36,0,0,1,1.27,8.55,4.1,4.1,0,0,1,4.35,7.23a4.28,4.28,0,0,1,3.14,1.3,4.28,4.28,0,0,1,1.3,3.14v54.7H40.37a4.45,4.45,0,0,1,4.44,4.44,4.1,4.1,0,0,1-1.3,3.09,4.36,4.36,0,0,1-3.14,1.26H6.09A5.85,5.85,0,0,1,1.79,73.4Z"/><path class="cls-1" d="M152.19,71.58,128,12.81a4.71,4.71,0,0,1-.3-1.67,4.55,4.55,0,0,1,1.18-3.29,4.28,4.28,0,0,1,3.24-1.23,4.12,4.12,0,0,1,2.5.83,5.27,5.27,0,0,1,1.72,2.21l23.06,57.5,23.06-57.5a5.26,5.26,0,0,1,1.72-2.21,4.11,4.11,0,0,1,2.5-.83,4.28,4.28,0,0,1,3.24,1.23A4.55,4.55,0,0,1,191,11.14a4.71,4.71,0,0,1-.3,1.67L166.52,71.58q-2.06,4.51-6.08,4.51h-2.15Q154.25,76.1,152.19,71.58Z"/><path class="cls-1" d="M204,74.37a4.26,4.26,0,0,1-1.28-3.14V11.65A4.43,4.43,0,0,1,204,8.48a4.17,4.17,0,0,1,3.15-1.34H230.3q10.5,0,16.25,4.81t5.74,13a15.89,15.89,0,0,1-2.7,9.47A16.61,16.61,0,0,1,242.66,40a21.71,21.71,0,0,1,9.67,6,14.8,14.8,0,0,1,3.78,10.4q0,9-6.08,14.13t-19.14,5.09H207.15A4.26,4.26,0,0,1,204,74.37Zm24.29-37.63q8.73,0,12.26-2.94a10.05,10.05,0,0,0,3.51-8.22,8.65,8.65,0,0,0-3.78-7.36q-3.78-2.74-10.35-2.75H212V36.76Zm2.21,30.56q9.6,0,13.62-3a9.85,9.85,0,0,0,4-8.41q0-11.29-17.53-11.29H212V67.3Z"/><g id="g901-6-8"><path id="path903-2-7" class="cls-2" d="M93.33,49.37c-.68-1.08-1.44-2.12-2-3.24-.34-.66-1-1.59-.55-2.22s1.57-.49,2.21-.29c4.87,1.53,9.75,3.08,14.55,4.81A8.16,8.16,0,0,1,113.25,57c-.37,3.87-3.3,6.76-7.36,7.66a4.85,4.85,0,0,0-2.82,2c-2.22,3.7-5.71,5.5-9.54,4.58a8.41,8.41,0,0,1-6.41-8.41q-.09-7.38,0-14.76c0-.77.16-2.06,1-2.31s1.49.87,2.1,1.45c.86.83,1.57,1.8,2.34,2.71l.81-.58"/></g><g id="g905-9-9"><path id="path907-1-2" class="cls-2" d="M80.23,49.92c.82-1,1.57-2,2.48-2.92.53-.52,1.21-1.42,1.94-1.2s.93,1.34,1,2c0,5.09.06,10.21-.1,15.32a8.17,8.17,0,0,1-6.42,8.08c-3.8.83-7.45-1.06-9.56-4.63a4.85,4.85,0,0,0-2.78-2.07c-4.21-1-7-3.73-7.29-7.66a8.42,8.42,0,0,1,6-8.69q7-2.36,14.07-4.51c.74-.22,2-.46,2.48.21s-.37,1.68-.74,2.44c-.52,1.06-1.23,2-1.85,3.06l.8.59"/></g><g id="g909-2-0"><path id="path911-7-2" class="cls-2" d="M90.4,40.87a4,4,0,0,1-8-.3q0-.15,0-.29a4,4,0,0,1,8,.58"/></g><g id="g913-0-3"><path id="path915-9-7" class="cls-2" d="M86.48,5.86a34.88,34.88,0,0,0-35,34.2C51.08,59.75,67.95,75.7,86.18,75.49c19.28-.23,34.71-15.44,35.17-34.14.46-19.29-16-36.07-34.85-35.49m34.2,12.82A12.38,12.38,0,0,1,122,20.8c8.88,15.4,5.84,35.86-6.72,48.56-14,14.13-34,14.16-46.62,8C52.71,69.6,44,52.5,46.13,34.74,47.92,19.27,61.68,3.9,77.39.93,94.11-2.24,108,2.66,118.78,16a21.45,21.45,0,0,1,1.91,2.68"/></g><g id="g917-3-5"><path id="path919-6-9" class="cls-2" d="M85.89,29.37c-.08,1.27-.07,2.56-.27,3.82-.12.73-.13,1.85-.86,2.12s-1.56-.52-2-1.06c-3.05-4.09-6.1-8.2-9-12.41a8.19,8.19,0,0,1,.4-10.31C76.8,8.6,80.86,8,84.68,9.62a4.85,4.85,0,0,0,3.46,0c4-1.71,7.87-1.12,10.42,1.85a8.43,8.43,0,0,1,.28,10.57q-4.25,6-8.67,12c-.46.62-1.34,1.58-2.12,1.3s-.7-1.57-.85-2.4c-.21-1.17-.22-2.37-.31-3.56Z"/></g><g id="g921-0-2"><path id="path923-6-2" class="cls-2" d="M96.84,36.73c-1.24.31-2.46.72-3.7.93-.74.12-1.81.46-2.28-.16s0-1.64.41-2.19c3-4.17,5.93-8.33,9.05-12.36a8.15,8.15,0,0,1,9.94-2.78c3.57,1.55,5.42,5.22,5,9.36a4.84,4.84,0,0,0,1,3.3c2.85,3.24,3.48,7.12,1.43,10.48a8.41,8.41,0,0,1-10,3.51q-7.05-2.18-14-4.58c-.73-.25-1.91-.78-1.89-1.62s1.28-1.16,2-1.55c1.05-.56,2.19-.93,3.3-1.39l-.31-.93"/></g><g id="g925-2-8"><path id="path927-6-9" class="cls-2" d="M75.67,37.62a37.51,37.51,0,0,1,3.55,1.46c.66.34,1.72.72,1.74,1.48s-1,1.31-1.62,1.53c-4.85,1.61-9.72,3.21-14.61,4.63a8.17,8.17,0,0,1-9.66-3.63c-2-3.36-1.29-7.41,1.49-10.52a4.84,4.84,0,0,0,1.12-3.27c-.37-4.3,1.39-7.8,5-9.29a8.42,8.42,0,0,1,10.13,3.06Q77.23,29,81.46,35c.44.63,1.08,1.76.56,2.42s-1.72.17-2.55.05c-1.18-.17-2.31-.54-3.49-.83l-.31.93"/></g></g></g><text class="cls-3" transform="translate(0.03 209.44)">MARK<tspan class="cls-4" x="128.15" y="0">E</tspan><tspan x="153.68" y="0">TING</tspan><tspan x="17.57" y="45">MAN</tspan><tspan class="cls-5" x="119.75" y="45">A</tspan><tspan x="151.1" y="45">GER</tspan></text></g></g></svg>