<?xml version="1.0" encoding="utf-8"?>
<!-- Generator: Adobe Illustrator 21.0.0, SVG Export Plug-In . SVG Version: 6.00 Build 0)  -->
<svg version="1.1" id="Capa_1" xmlns="http://www.w3.org/2000/svg" xmlns:xlink="http://www.w3.org/1999/xlink" x="0px" y="0px"
	 viewBox="0 0 257 266.6" style="enable-background:new 0 0 257 266.6;" xml:space="preserve">
<style type="text/css">
	.st0{fill:#002244;}
	.st1{fill:#FB4F14;}
</style>
<title>cortoazulmm</title>
<g id="Capa_2">
	<g id="Capa_1-2">
		<g id="Capa_2-2">
			<g id="negro">
				<path class="st0" d="M1.5,151.3c-1-0.7-1.6-1.8-1.5-3c0-0.9,0.4-1.8,1-2.5c0.6-0.7,1.6-1.1,2.5-1.1c0.6,0,1.1,0.1,1.6,0.4
					c1.9,0.8,3.8,1.5,5.7,2c2.1,0.5,4.3,0.7,6.5,0.7c6.6,0,9.9-2.1,9.9-6.4c0-1.4-0.9-2.7-2.3-3.1c-2.4-1-4.9-1.8-7.5-2.4
					c-3-0.7-5.9-1.5-8.7-2.6c-2.3-0.9-4.3-2.3-5.9-4.1c-1.7-2-2.6-4.6-2.5-7.2c-0.1-3.9,1.5-7.7,4.5-10.2c3-2.6,7.3-3.9,13-3.9
					c4.4,0,8.8,0.7,13,2.2c0.8,0.2,1.5,0.7,1.9,1.3c0.4,0.6,0.7,1.3,0.7,2.1c0,0.9-0.3,1.8-1,2.5c-0.7,0.7-1.6,1.1-2.5,1.1
					c-0.4,0-0.8-0.1-1.2-0.2c-3.3-1-6.7-1.6-10.2-1.6c-2.7-0.2-5.3,0.4-7.6,1.7c-1.7,0.9-2.7,2.6-2.7,4.5c-0.1,1.7,0.9,3.3,2.5,3.9
					c2.5,1.1,5.1,1.9,7.8,2.4c2.9,0.7,5.8,1.6,8.6,2.6c2.2,0.9,4.2,2.3,5.7,4.1c1.7,2.1,2.5,4.7,2.4,7.4c0.1,3.7-1.6,7.2-4.5,9.5
					c-3,2.5-7.3,3.8-12.8,3.8C12.1,155.4,6.5,154,1.5,151.3z"/>
				<path class="st0" d="M48.1,143.4v-27.6H42c-0.9,0-1.7-0.7-1.7-1.7l0,0c0-0.6,0.3-1.2,0.8-1.5l12.2-11.9c0.4-0.5,0.9-0.7,1.5-0.8
					c0.5,0,0.9,0.2,1.2,0.6c0.3,0.3,0.5,0.8,0.5,1.3v7.1h10.3c1.9-0.1,3.5,1.3,3.6,3.2c0,0.1,0,0.2,0,0.3c0,0.9-0.3,1.8-1,2.4
					c-0.7,0.7-1.6,1-2.6,1H56.5v26.9c0,2.3,0.6,3.8,1.7,4.4c1.3,0.7,2.8,1,4.3,0.9c1.2,0,2.5-0.2,3.7-0.5l0.8-0.2
					c0.3-0.1,0.7-0.1,1.1-0.1c0.9,0,1.7,0.3,2.3,0.9c0.6,0.6,1,1.4,1,2.3c0,1.4-0.8,2.6-2.1,3.1c-2.4,1.1-5,1.6-7.6,1.6
					C52.6,155.1,48.1,151.2,48.1,143.4z"/>
				<path class="st0" d="M86.7,153c-2.4-1.6-4.4-3.8-5.6-6.4c-1.3-2.8-2-5.8-1.9-8.9v-25.3c0-1.1,0.4-2.2,1.2-2.9
					c0.8-0.8,1.9-1.2,3-1.2c2.2,0,4.1,1.8,4.1,4c0,0,0,0,0,0c0,0,0,0.1,0,0.1v24.5c0,7.3,3.3,10.9,9.8,10.9c2.8,0,5.6-0.8,8-2.3
					c2.5-1.7,4.8-3.8,6.7-6.2v-27.3c0-1.1,0.4-2.2,1.2-2.9c0.8-0.8,1.9-1.2,3-1.2c2.2,0,4.1,1.8,4.1,4c0,0,0,0,0,0c0,0,0,0.1,0,0.1
					v39.3c0,1.1-0.4,2.2-1.2,3c-0.8,0.8-1.8,1.3-2.9,1.2c-2.3,0-4.2-1.9-4.2-4.2v-4.1c-2.1,2.4-4.6,4.4-7.4,6
					c-2.9,1.6-6.1,2.3-9.4,2.3C92.2,155.4,89.2,154.6,86.7,153z"/>
				<path class="st0" d="M175.6,89.8c-0.8-0.8-1.8-1.2-2.9-1.2c-1.1,0-2.2,0.4-3,1.2c-0.8,0.8-1.3,1.9-1.2,3v22
					c-4-4.4-9.7-6.8-15.6-6.8c-7.9,0-15.1,4.2-19,11.1c-4.2,7.9-4.2,17.4,0,25.3c3.9,6.8,11.1,11.1,19,11.1c5.9,0,11.6-2.4,15.6-6.8
					v2.3c0,1.1,0.4,2.1,1.2,2.9c0.8,0.8,1.9,1.2,3,1.2c2.2,0.1,4.1-1.7,4.1-3.9c0,0,0,0,0-0.1c0,0,0-0.1,0-0.1V92.7
					C176.8,91.6,176.4,90.6,175.6,89.8z M168.5,141c-1.8,2-4,3.7-6.4,4.9c-2.4,1.2-5.1,1.9-7.8,1.9c-4,0.2-7.9-1.4-10.6-4.2
					c-2.7-2.8-4-6.8-4.1-11.9s1.3-9.1,4-11.9c2.8-2.8,6.7-4.4,10.6-4.2c2.7,0,5.4,0.6,7.8,1.8c2.4,1.2,4.6,2.9,6.4,4.9L168.5,141z"
					/>
				<path class="st0" d="M191.6,98.2c-0.9-0.9-1.4-2.1-1.4-3.3v-0.4c0-2.6,2-4.6,4.6-4.7h0.5c2.6,0,4.6,2.1,4.6,4.7v0.4
					c0,2.6-2,4.6-4.6,4.7h-0.5C193.6,99.6,192.4,99.1,191.6,98.2z"/>
				<path class="st0" d="M191.9,154.2c-0.8-0.8-1.2-1.8-1.2-2.9V112c0-1.1,0.4-2.2,1.2-3c0.8-0.8,1.8-1.3,2.9-1.2
					c2.2-0.1,4.1,1.7,4.2,3.9c0,0,0,0,0,0c0,0.1,0,0.2,0,0.3v39.3c0,1.1-0.4,2.2-1.2,2.9c-0.8,0.8-1.9,1.2-3,1.2
					C193.7,155.4,192.6,155,191.9,154.2z"/>
				<path class="st0" d="M253.4,119.2c-1.8-3.5-4.6-6.4-8.1-8.4c-7.5-3.9-16.5-3.9-24.1,0c-3.4,1.9-6.2,4.9-8,8.4
					c-3.8,7.8-3.8,17,0,24.8c1.8,3.5,4.6,6.4,8,8.4c7.5,3.9,16.5,3.9,24.1,0c3.4-1.9,6.2-4.9,8.1-8.4
					C257.3,136.2,257.3,127,253.4,119.2z M246,140.8c-1.3,2.3-3.2,4.2-5.6,5.4c-2.2,1.1-4.6,1.7-7,1.7c-2.5,0-4.9-0.6-7.1-1.7
					c-2.3-1.2-4.2-3.1-5.5-5.4c-1.5-2.9-2.3-6.1-2.1-9.3c-0.1-3.2,0.6-6.4,2.1-9.2c1.3-2.3,3.2-4.1,5.5-5.3c2.2-1.1,4.6-1.7,7.1-1.7
					c2.4,0,4.8,0.6,7,1.7c2.3,1.2,4.3,3,5.6,5.3c1.6,2.8,2.3,6,2.2,9.2C248.3,134.8,247.6,138,246,140.8L246,140.8z"/>
				<path class="st0" d="M1.8,73.4C0.6,72.3,0,70.7,0,69.1V11.7c0-1.2,0.4-2.3,1.3-3.1c0.8-0.9,1.9-1.3,3.1-1.3
					c1.2,0,2.3,0.5,3.1,1.3c0.8,0.8,1.3,2,1.3,3.1v54.7h31.6c2.4,0,4.4,2,4.4,4.4c0,1.2-0.4,2.3-1.3,3.1c-0.8,0.8-2,1.3-3.1,1.3H6.1
					C4.5,75.2,2.9,74.6,1.8,73.4z"/>
				<path class="st0" d="M152.2,71.6L128,12.8c-0.2-0.5-0.3-1.1-0.3-1.7c-0.1-1.2,0.4-2.4,1.2-3.3c0.9-0.8,2-1.3,3.2-1.2
					c0.9,0,1.8,0.3,2.5,0.8c0.8,0.6,1.4,1.3,1.7,2.2l23.1,57.5l23.1-57.5c0.4-0.9,1-1.6,1.7-2.2c0.7-0.5,1.6-0.8,2.5-0.8
					c1.2-0.1,2.4,0.4,3.2,1.2c0.8,0.9,1.2,2.1,1.1,3.3c0,0.6-0.1,1.1-0.3,1.7l-24.2,58.8c-1.4,3-3.4,4.5-6.1,4.5h-2.1
					C155.6,76.1,153.6,74.6,152.2,71.6z"/>
				<path class="st0" d="M204,74.4c-0.8-0.8-1.3-2-1.3-3.1V11.6c0-1.2,0.4-2.3,1.3-3.2c0.8-0.9,2-1.4,3.1-1.3h23.2
					c7,0,12.4,1.6,16.3,4.8c3.8,3.2,5.7,7.5,5.7,13c0.1,3.4-0.8,6.7-2.7,9.5c-1.8,2.5-4.2,4.4-6.9,5.6c3.7,1.1,7,3.2,9.7,6
					c2.6,2.8,3.9,6.6,3.8,10.4c0,6-2,10.7-6.1,14.1c-4.1,3.4-10.4,5.1-19.1,5.1h-23.7C206,75.7,204.8,75.2,204,74.4z M228.3,36.7
					c5.8,0,9.9-1,12.3-2.9c2.4-2,3.7-5.1,3.5-8.2c0.1-2.9-1.4-5.7-3.8-7.4c-2.5-1.8-6-2.7-10.4-2.7H212v21.3L228.3,36.7z
					 M230.5,67.3c6.4,0,10.9-1,13.6-3c2.7-2,4.2-5.1,4-8.4c0-7.5-5.8-11.3-17.5-11.3H212v22.7H230.5z"/>
				<g id="g901-6-8">
					<path id="path903-2-7" class="st1" d="M93.3,49.4c-0.7-1.1-1.4-2.1-2-3.2c-0.3-0.7-1-1.6-0.6-2.2s1.6-0.5,2.2-0.3
						c4.9,1.5,9.8,3.1,14.6,4.8c3.7,1.1,6.1,4.7,5.7,8.6c-0.4,3.9-3.3,6.8-7.4,7.7c-1.2,0.3-2.2,1-2.8,2c-2.2,3.7-5.7,5.5-9.5,4.6
						c-3.9-0.9-6.5-4.4-6.4-8.4c-0.1-4.9-0.1-9.8,0-14.8c0-0.8,0.2-2.1,1-2.3s1.5,0.9,2.1,1.5c0.9,0.8,1.6,1.8,2.3,2.7L93.3,49.4"/>
				</g>
				<g id="g905-9-9">
					<path id="path907-1-2" class="st1" d="M80.2,49.9c0.8-1,1.6-2,2.5-2.9c0.5-0.5,1.2-1.4,1.9-1.2s0.9,1.3,1,2
						c0,5.1,0.1,10.2-0.1,15.3c0,3.9-2.6,7.3-6.4,8.1c-3.8,0.8-7.4-1.1-9.6-4.6c-0.6-1-1.6-1.7-2.8-2.1c-4.2-1-7-3.7-7.3-7.7
						c-0.3-3.9,2.2-7.6,6-8.7c4.7-1.6,9.4-3.1,14.1-4.5c0.7-0.2,2-0.5,2.5,0.2s-0.4,1.7-0.7,2.4c-0.5,1.1-1.2,2-1.8,3.1L80.2,49.9"
						/>
				</g>
				<g id="g909-2-0">
					<path id="path911-7-2" class="st1" d="M90.4,40.9c-0.1,2.2-1.9,3.9-4.2,3.8c-2.2-0.1-3.9-1.9-3.8-4.1c0-0.1,0-0.2,0-0.3
						c0.2-2.2,2.1-3.9,4.3-3.7S90.6,38.7,90.4,40.9"/>
				</g>
				<g id="g913-0-3">
					<path id="path915-9-7" class="st1" d="M86.5,5.9c-19-0.1-34.6,15.2-35,34.2c-0.4,19.7,16.5,35.6,34.7,35.4
						c19.3-0.2,34.7-15.4,35.2-34.1C121.8,22.1,105.3,5.3,86.5,5.9 M120.7,18.7c0.5,0.7,0.9,1.4,1.3,2.1c8.9,15.4,5.8,35.9-6.7,48.6
						c-14,14.1-34,14.2-46.6,8c-16-7.8-24.7-24.9-22.5-42.6C47.9,19.3,61.7,3.9,77.4,0.9C94.1-2.2,108,2.7,118.8,16
						C119.5,16.8,120.1,17.7,120.7,18.7"/>
				</g>
				<g id="g917-3-5">
					<path id="path919-6-9" class="st1" d="M85.9,29.4c-0.1,1.3-0.1,2.6-0.3,3.8c-0.1,0.7-0.1,1.8-0.9,2.1s-1.6-0.5-2-1.1
						c-3.1-4.1-6.1-8.2-9-12.4c-2.3-3.1-2.2-7.4,0.4-10.3c2.6-2.9,6.7-3.5,10.5-1.9c1.1,0.4,2.3,0.4,3.5,0c4-1.7,7.9-1.1,10.4,1.9
						c2.6,3,2.7,7.4,0.3,10.6c-2.8,4-5.7,8-8.7,12c-0.5,0.6-1.3,1.6-2.1,1.3s-0.7-1.6-0.8-2.4c-0.2-1.2-0.2-2.4-0.3-3.6L85.9,29.4z"
						/>
				</g>
				<g id="g921-0-2">
					<path id="path923-6-2" class="st1" d="M96.8,36.7c-1.2,0.3-2.5,0.7-3.7,0.9c-0.7,0.1-1.8,0.5-2.3-0.2s0-1.6,0.4-2.2
						c3-4.2,5.9-8.3,9.1-12.4c2.2-3.2,6.4-4.3,9.9-2.8c3.6,1.5,5.4,5.2,5,9.4c-0.1,1.2,0.3,2.4,1,3.3c2.8,3.2,3.5,7.1,1.4,10.5
						c-2.1,3.4-6.3,4.9-10,3.5c-4.7-1.5-9.4-3-14-4.6c-0.7-0.3-1.9-0.8-1.9-1.6s1.3-1.2,2-1.5c1.1-0.6,2.2-0.9,3.3-1.4L96.8,36.7"/>
				</g>
				<g id="g925-2-8">
					<path id="path927-6-9" class="st1" d="M75.7,37.6c1.2,0.4,2.4,0.9,3.6,1.5c0.7,0.3,1.7,0.7,1.7,1.5s-1,1.3-1.6,1.5
						c-4.8,1.6-9.7,3.2-14.6,4.6c-3.7,1.2-7.7-0.3-9.7-3.6c-2-3.4-1.3-7.4,1.5-10.5c0.8-0.9,1.2-2.1,1.1-3.3c-0.4-4.3,1.4-7.8,5-9.3
						c3.7-1.5,7.9-0.2,10.1,3.1c2.9,4,5.8,7.9,8.7,11.9c0.4,0.6,1.1,1.8,0.6,2.4s-1.7,0.2-2.6,0c-1.2-0.2-2.3-0.5-3.5-0.8L75.7,37.6
						"/>
				</g>
			</g>
		</g>
	</g>
</g>
<g>
	<polygon class="st1" points="26.8,209.2 26.8,188.1 26.7,188.1 18.1,209.2 14.8,209.2 6.1,188.1 6,188.1 6,209.2 1.9,209.2 
		1.9,180.6 7.1,180.6 16.3,203.4 16.5,203.4 25.7,180.6 30.9,180.6 30.9,209.2 	"/>
	<g>
		<path class="st1" d="M53.2,180.6h-4.8l-10.3,28.6h4.6l2.6-7.7h10.9l2.6,7.7h4.7L53.2,180.6z M46.4,197.9l4.3-12.5h0.1l4.3,12.5
			H46.4z"/>
	</g>
	<g>
		<path class="st1" d="M85.8,197.5c3.5-1.2,5.5-4.3,5.5-8.2c0-5.3-3.7-8.7-9.5-8.7H70.7v28.6h4.4v-11h6.1l5.8,11h5.1L85.8,197.5z
			 M81.4,194.6h-6.2v-10.3h6.1c3.4,0,5.5,1.9,5.5,5.1C86.8,192.7,84.8,194.6,81.4,194.6z"/>
	</g>
	<polygon class="st1" points="99.7,209.2 99.7,180.6 104.1,180.6 104.1,194.2 104.3,194.2 116.2,180.6 121.5,180.6 110.2,193.2 
		122.5,209.2 116.9,209.2 107,196.3 104.1,199.6 104.1,209.2 	"/>
	<polygon class="st1" points="147.5,209.2 129.3,209.2 129.3,180.6 147.5,180.6 147.5,184.4 133.8,184.4 133.8,192.8 146.8,192.8 
		146.8,196.4 133.8,196.4 133.8,205.3 147.5,205.3 	"/>
	<polygon class="st1" points="163.2,209.2 163.2,184.4 154.4,184.4 154.4,180.6 176.4,180.6 176.4,184.4 167.6,184.4 167.6,209.2 	
		"/>
	<rect x="184" y="180.6" class="st1" width="4.4" height="28.6"/>
	<polygon class="st1" points="197.8,209.2 197.8,180.6 201.8,180.6 216.6,201.7 216.8,201.7 216.8,180.6 221.1,180.6 221.1,209.2 
		217.1,209.2 202.3,188.1 202.1,188.1 202.1,209.2 	"/>
	<path class="st1" d="M242.7,209.6c-8.2,0-13.3-5.7-13.3-14.9c0-9,5.1-14.6,13.3-14.6c6.4,0,11.2,3.8,12.2,9.5h-4.6
		c-1.1-3.5-3.9-5.6-7.6-5.6c-5.5,0-8.8,4-8.8,10.7c0,6.8,3.4,11.1,8.8,11.1c4.6,0,7.8-3,7.9-7.3v-0.5h-7.4v-3.6h11.8v2.9
		C255.1,205,250.5,209.6,242.7,209.6z"/>
</g>
<g>
	<polygon class="st1" points="47.3,251.4 47.3,230.3 47.1,230.3 38.5,251.4 35.2,251.4 26.6,230.3 26.5,230.3 26.5,251.4 
		22.4,251.4 22.4,222.8 27.5,222.8 36.8,245.6 37,245.6 46.2,222.8 51.3,222.8 51.3,251.4 	"/>
	<g>
		<path class="st1" d="M73.7,222.8h-4.8l-10.3,28.6h4.6l2.6-7.7h10.9l2.6,7.7H84L73.7,222.8z M66.9,240.1l4.3-12.5h0.1l4.3,12.5
			H66.9z"/>
	</g>
	<polygon class="st1" points="91.2,251.4 91.2,222.8 95.2,222.8 110,243.9 110.2,243.9 110.2,222.8 114.5,222.8 114.5,251.4 
		110.5,251.4 95.7,230.3 95.5,230.3 95.5,251.4 	"/>
	<g>
		<path class="st1" d="M136.8,222.8H132l-10.3,28.6h4.6l2.6-7.7h10.9l2.6,7.7h4.7L136.8,222.8z M130.1,240.1l4.3-12.5h0.1l4.3,12.5
			H130.1z"/>
	</g>
	<path class="st1" d="M165.6,251.8c-8.2,0-13.3-5.7-13.3-14.9c0-9,5.1-14.6,13.3-14.6c6.4,0,11.2,3.8,12.2,9.5h-4.6
		c-1.1-3.5-3.9-5.6-7.6-5.6c-5.5,0-8.8,4-8.8,10.7c0,6.8,3.4,11.1,8.8,11.1c4.6,0,7.8-3,7.9-7.3v-0.5h-7.4v-3.6H178v2.9
		C178,247.2,173.4,251.8,165.6,251.8z"/>
	<polygon class="st1" points="204.5,251.4 186.4,251.4 186.4,222.8 204.5,222.8 204.5,226.6 190.8,226.6 190.8,235 203.8,235 
		203.8,238.7 190.8,238.7 190.8,247.5 204.5,247.5 	"/>
	<g>
		<path class="st1" d="M228.2,239.7c3.5-1.2,5.5-4.3,5.5-8.2c0-5.3-3.7-8.7-9.5-8.7h-11.1v28.6h4.4v-11h6.1l5.8,11h5.1L228.2,239.7z
			 M223.8,236.8h-6.2v-10.3h6.1c3.4,0,5.5,1.9,5.5,5.1C229.2,234.9,227.2,236.8,223.8,236.8z"/>
	</g>
</g>
</svg>
