<svg xmlns="http://www.w3.org/2000/svg" viewBox="0 0 553.85 523.2"><defs><style>.cls-1{fill:#fffaf0;}.cls-2{fill:#fb4f14;}</style></defs><title>cortoblancowebfondo</title><g id="Capa_2" data-name="Capa 2"><g id="negro"><path class="cls-1" d="M3.29,370.1A7.39,7.39,0,0,1,0,363.71a7.76,7.76,0,0,1,2.13-5.42A7,7,0,0,1,7.55,356a8.54,8.54,0,0,1,3.48.77A77.81,77.81,0,0,0,23.41,361a57.44,57.44,0,0,0,13.93,1.55q21.48,0,21.48-13.74,0-4.45-4.93-6.77t-16.16-5.22a145.62,145.62,0,0,1-18.87-5.61,33.13,33.13,0,0,1-12.77-8.8Q.77,316.5.77,306.82q0-13.54,9.77-22.06t28-8.51a80.72,80.72,0,0,1,28.06,4.84,7.27,7.27,0,0,1,4.16,2.9,7.79,7.79,0,0,1,1.45,4.45,7.59,7.59,0,0,1-2.23,5.42,7.33,7.33,0,0,1-5.51,2.32,10.73,10.73,0,0,1-2.52-.39,74.17,74.17,0,0,0-22.06-3.48q-10.45,0-16.35,3.77t-5.9,9.77A8.94,8.94,0,0,0,23,314.37q5.41,2.71,16.83,5.22a162,162,0,0,1,18.58,5.71,30.76,30.76,0,0,1,12.29,8.8q5.12,6,5.13,16.06a25.56,25.56,0,0,1-9.77,20.51q-9.77,8.13-27.57,8.13A72,72,0,0,1,3.29,370.1Z"/><path class="cls-1" d="M104.49,353.26v-60H90.75a3.63,3.63,0,0,1-3.68-3.68,4.05,4.05,0,0,1,1.74-3.29l26.32-25.74a4.88,4.88,0,0,1,3.29-1.74A3.41,3.41,0,0,1,121,260a3.9,3.9,0,0,1,1.06,2.71v15.48H144a7.28,7.28,0,0,1,7.55,7.55,7.43,7.43,0,0,1-2.13,5.32,7.17,7.17,0,0,1-5.42,2.23H122.1v58.44q0,7.55,3.58,9.58a18,18,0,0,0,9,2,26.84,26.84,0,0,0,7.74-1.16l1.64-.39a10.67,10.67,0,0,1,2.23-.19,6.82,6.82,0,0,1,4.84,2,6.57,6.57,0,0,1,2.13,4.93q0,4.45-4.45,6.77a37.87,37.87,0,0,1-16.06,3.48Q104.48,378.8,104.49,353.26Z"/><path class="cls-1" d="M187.78,373.77a32.69,32.69,0,0,1-12-13.74,43.83,43.83,0,0,1-4.16-19.16v-55a8.26,8.26,0,0,1,2.61-6.19,8.75,8.75,0,0,1,6.29-2.52,8.59,8.59,0,0,1,8.71,8.71v53q0,23.61,21.28,23.61a30.78,30.78,0,0,0,17.32-5A62.69,62.69,0,0,0,242.25,344v-58a8.26,8.26,0,0,1,2.61-6.19,8.75,8.75,0,0,1,6.29-2.52,8.59,8.59,0,0,1,8.71,8.71v83a8.75,8.75,0,0,1-2.52,6.29,8.26,8.26,0,0,1-6.19,2.61,8.92,8.92,0,0,1-8.9-8.9V361a64.33,64.33,0,0,1-15.87,13q-8.52,4.83-20.12,4.84A33.46,33.46,0,0,1,187.78,373.77Z"/><path class="cls-1" d="M379.44,237.26a8.26,8.26,0,0,0-6.19-2.61,8.75,8.75,0,0,0-6.29,2.52,8.49,8.49,0,0,0-2.61,6.39V291q-14.13-14.7-33.09-14.71a45.36,45.36,0,0,0-22.74,6.1,46.24,46.24,0,0,0-17.41,17.8q-6.68,11.71-6.68,27.38t6.68,27.38a46.22,46.22,0,0,0,17.41,17.8,45.36,45.36,0,0,0,22.74,6.1q19,0,33.09-14.71v5a8.25,8.25,0,0,0,2.61,6.19,8.75,8.75,0,0,0,6.29,2.52,8.59,8.59,0,0,0,8.71-8.71V243.55A8.75,8.75,0,0,0,379.44,237.26ZM364.35,347.84a47.78,47.78,0,0,1-13.84,10.55,36.54,36.54,0,0,1-16.74,4q-14.32,0-23-9.09T302,327.53q0-16.64,8.71-25.73t23-9.09a36.58,36.58,0,0,1,16.74,4,47.88,47.88,0,0,1,13.84,10.55Z"/><path class="cls-1" d="M413.88,255.16a9.5,9.5,0,0,1-2.9-7v-.77a9.91,9.91,0,0,1,9.87-9.87H422a9.91,9.91,0,0,1,9.87,9.87v.77a9.91,9.91,0,0,1-9.87,9.87h-1.16A9.5,9.5,0,0,1,413.88,255.16Z"/><path class="cls-1" d="M415,375.32a8.41,8.41,0,0,1-2.52-6.19v-83a8.74,8.74,0,0,1,2.52-6.29,8.25,8.25,0,0,1,6.19-2.61,8.61,8.61,0,0,1,8.9,8.9v83a8.25,8.25,0,0,1-2.61,6.19,8.75,8.75,0,0,1-6.29,2.52A8.42,8.42,0,0,1,415,375.32Z"/><path class="cls-1" d="M547.59,300.73a44,44,0,0,0-17.41-18.09q-11.23-6.39-25.93-6.39-14.9,0-26.12,6.39a43.4,43.4,0,0,0-17.32,18.09q-6.09,11.71-6.09,26.8t6.09,26.8a43.38,43.38,0,0,0,17.32,18.09q11.22,6.39,26.12,6.39,14.7,0,25.93-6.39a44,44,0,0,0,17.41-18.09q6.19-11.7,6.19-26.8T547.59,300.73Zm-16.16,46.73a29.54,29.54,0,0,1-12,11.61,33.17,33.17,0,0,1-15.19,3.68,33.56,33.56,0,0,1-15.38-3.68A28.93,28.93,0,0,1,477,347.46q-4.64-7.93-4.64-20.12,0-12,4.64-19.93a28.33,28.33,0,0,1,11.9-11.51,34.33,34.33,0,0,1,15.38-3.58,33.93,33.93,0,0,1,15.19,3.58,28.92,28.92,0,0,1,12,11.51q4.74,7.94,4.74,19.93Q536.17,339.52,531.43,347.46Z"/><path class="cls-1" d="M3.94,159.16A12.85,12.85,0,0,1,0,149.72V23.79A9.57,9.57,0,0,1,2.78,16.9,9,9,0,0,1,9.56,14a9.4,9.4,0,0,1,6.89,2.86,9.39,9.39,0,0,1,2.86,6.89v120H88.64a9.77,9.77,0,0,1,9.75,9.75,9,9,0,0,1-2.86,6.78,9.58,9.58,0,0,1-6.89,2.76H13.38A12.85,12.85,0,0,1,3.94,159.16Z"/><path class="cls-1" d="M328.83,154.39l-52.36-127a10.18,10.18,0,0,1-.64-3.6,9.83,9.83,0,0,1,2.54-7.1,9.25,9.25,0,0,1,7-2.65,8.9,8.9,0,0,1,5.41,1.8,11.39,11.39,0,0,1,3.71,4.77l49.82,124.23L394.13,20.61a11.37,11.37,0,0,1,3.71-4.77,8.89,8.89,0,0,1,5.41-1.8,9.25,9.25,0,0,1,7,2.65,9.83,9.83,0,0,1,2.54,7.1,10.18,10.18,0,0,1-.64,3.6l-52.36,127q-4.45,9.75-13.14,9.75H342Q333.28,164.14,328.83,154.39Z"/><path class="cls-1" d="M441.19,160.32a9.21,9.21,0,0,1-2.76-6.78V24.85A9.57,9.57,0,0,1,441.19,18,9,9,0,0,1,448,15.1h50q22.68,0,35.09,10.39t12.4,28q0,12.3-5.83,20.46a35.88,35.88,0,0,1-14.95,12.19A46.89,46.89,0,0,1,545.6,99.05q8.16,8.9,8.16,22.47,0,19.51-13.14,30.53t-41.34,11H448A9.21,9.21,0,0,1,441.19,160.32Zm51.73-81.2q18.87,0,26.5-6.36T527,55a18.69,18.69,0,0,0-8.16-15.9q-8.16-5.93-22.37-5.94h-38.8v46Zm4.45,65.93q20.56,0,29.15-6.36t8.59-18q0-24.17-37.52-24.17H457.72v48.55Z"/><g id="g901-6-8"><path id="path903-2-7" class="cls-2" d="M201.66,106.66c-1.47-2.33-3.12-4.58-4.36-7-.73-1.43-2.11-3.43-1.18-4.79s3.39-1.05,4.78-.62c10.53,3.31,21.06,6.65,31.44,10.4,8.54,3.08,13.13,10.41,12.34,18.57-.81,8.37-7.12,14.61-15.91,16.55a10.47,10.47,0,0,0-6.1,4.32c-4.8,8-12.33,11.89-20.61,9.9s-13.74-9.12-13.86-18.17q-.2-15.95.08-31.9c0-1.66.34-4.45,2.07-5s3.23,1.87,4.53,3.13c1.85,1.79,3.39,3.89,5.06,5.85l1.74-1.26"/></g><g id="g905-9-9"><path id="path907-1-2" class="cls-2" d="M173.34,107.85c1.77-2.12,3.4-4.38,5.35-6.31,1.14-1.13,2.61-3.06,4.2-2.6s2,2.9,2.06,4.35c.09,11,.14,22.07-.22,33.1-.31,9.07-5.88,15.69-13.88,17.45-8.22,1.8-16.1-2.29-20.65-10a10.47,10.47,0,0,0-6-4.48c-9.1-2.1-15.11-8.07-15.76-16.56s4.46-15.88,13-18.77q15.12-5.09,30.39-9.74c1.6-.48,4.34-1,5.35.45s-.79,3.64-1.59,5.27c-1.13,2.3-2.66,4.42-4,6.61l1.73,1.27"/></g><g id="g909-2-0"><path id="path911-7-2" class="cls-2" d="M195.31,88.29A8.63,8.63,0,1,1,178.11,87a8.63,8.63,0,0,1,17.21,1.26"/></g><g id="g913-0-3"><path id="path915-9-7" class="cls-2" d="M186.86,12.66a75.37,75.37,0,0,0-75.58,73.9c-.91,42.54,35.53,77,74.92,76.54,41.65-.5,75-33.35,76-73.76,1-41.67-34.65-77.93-75.29-76.69m73.9,27.69a26.76,26.76,0,0,1,2.81,4.59c19.19,33.27,12.62,77.49-14.53,104.92-30.2,30.53-73.5,30.59-100.73,17.32-34.48-16.8-53.19-53.75-48.69-92.11C103.53,41.62,133.26,8.42,167.21,2c36.13-6.84,66.2,3.73,89.42,32.55a46.35,46.35,0,0,1,4.13,5.8"/></g><g id="g917-3-5"><path id="path919-6-9" class="cls-2" d="M185.58,63.75c-.17,2.75-.15,5.54-.58,8.26-.25,1.58-.29,4-1.85,4.58s-3.36-1.13-4.24-2.29c-6.6-8.84-13.18-17.71-19.4-26.82C154.4,40,155,31.35,160.38,25.2c5.56-6.31,14.33-7.68,22.59-4.11a10.47,10.47,0,0,0,7.48.07c8.58-3.69,17-2.42,22.51,4s5.8,15.44.6,22.83q-9.18,13-18.74,25.82c-1,1.33-2.89,3.41-4.58,2.8s-1.52-3.4-1.84-5.19c-.45-2.53-.47-5.13-.67-7.7Z"/></g><g id="g921-0-2"><path id="path923-6-2" class="cls-2" d="M209.24,79.36c-2.68.68-5.32,1.56-8,2-1.59.25-3.91,1-4.93-.35s0-3.54.88-4.73c6.39-9,12.81-18,19.56-26.7,5.56-7.17,14-9.29,21.47-6,7.72,3.35,11.72,11.27,10.87,20.23a10.46,10.46,0,0,0,2.23,7.14c6.15,7,7.52,15.39,3.09,22.65s-12.91,10.26-21.55,7.59q-15.24-4.72-30.34-9.89c-1.57-.54-4.13-1.69-4.08-3.49s2.77-2.5,4.37-3.34c2.27-1.2,4.74-2,7.13-3l-.66-2"/></g><g id="g925-2-8"><path id="path927-6-9" class="cls-2" d="M163.49,81.28c2.56,1,5.21,1.89,7.66,3.15,1.42.74,3.72,1.55,3.76,3.2s-2.13,2.84-3.51,3.3c-10.47,3.48-21,6.93-31.57,10-8.72,2.5-16.74-.76-20.88-7.84-4.24-7.26-2.78-16,3.21-22.73a10.46,10.46,0,0,0,2.42-7.07c-.8-9.3,3-16.85,10.91-20.08s16.49-.64,21.88,6.62Q166.86,62.59,176,75.69c.95,1.37,2.33,3.81,1.22,5.23s-3.71.37-5.5.11c-2.54-.37-5-1.17-7.53-1.79l-.68,2"/></g><path class="cls-2" d="M35.54,522.64H30l-7.34-25.16h-.12l-7.31,25.16H9.69L.6,490.14H6l6.5,26.44h.13L20,490.14h5.25l7.38,26.44h.13l6.5-26.44H44.6Z"/><path class="cls-2" d="M81.32,522.64H75.79l-7.34-25.16h-.12L61,522.64H55.47l-9.09-32.5h5.41l6.5,26.44h.13l7.34-26.44H71l7.38,26.44h.13L85,490.14h5.38Z"/><path class="cls-2" d="M127.1,522.64h-5.53l-7.34-25.16h-.12l-7.31,25.16h-5.53l-9.09-32.5h5.41l6.5,26.44h.13l7.34-26.44h5.25l7.38,26.44h.13l6.5-26.44h5.38Z"/><path class="cls-2" d="M137.88,519.39a3.56,3.56,0,1,1,3.56,3.56A3.52,3.52,0,0,1,137.88,519.39Z"/><path class="cls-2" d="M153.38,477.54h5.44v45.09h-5.44Z"/><path class="cls-2" d="M164.57,506.39c0-10.37,6.06-16.81,15.06-16.81s15,6.44,15,16.81-6.06,16.81-15,16.81S164.57,516.73,164.57,506.39Zm24.56,0c0-7.66-3.75-12-9.5-12s-9.53,4.38-9.53,12,3.78,12,9.53,12S189.13,514,189.13,506.39Z"/><path class="cls-2" d="M213.91,522.64h-5.56l-12-32.5h5.72l9,26.72h.13l9-26.72h5.66Z"/><path class="cls-2" d="M235.69,517.14h-.12v5.5h-5.19V477.54h5.44v18h.13a11.52,11.52,0,0,1,10.41-6c8.19,0,13.72,6.63,13.72,16.81s-5.5,16.81-13.81,16.81A11.66,11.66,0,0,1,235.69,517.14Zm.09-10.75c0,7.25,3.91,12,9.41,12,5.75,0,9.31-4.59,9.31-12s-3.56-12-9.31-12C239.69,494.36,235.79,499.17,235.79,506.39Z"/><path class="cls-2" d="M276.94,489.58c7.13,0,11.88,4.19,12.09,9.94h-5.19c-.41-3.41-2.91-5.5-6.91-5.5s-6.59,2-6.59,4.81c0,2.25,1.66,3.78,5.28,4.66l5.16,1.25c6.56,1.59,8.94,4.16,8.94,8.81,0,5.66-5.34,9.66-12.59,9.66-7.62,0-12.37-3.84-13-9.94h5.44c.66,3.72,3.16,5.5,7.56,5.5s7.13-1.87,7.13-4.81c0-2.34-1.28-3.69-5-4.59l-5.16-1.25c-6.12-1.47-9.09-4.31-9.09-9C265,493.54,269.91,489.58,276.94,489.58Z"/><path class="cls-2" d="M302.54,482.29v7.84h6.31v4.47h-6.31v19.31c0,3,1.25,4.31,4,4.31a21.16,21.16,0,0,0,2.25-.16v4.56a19.37,19.37,0,0,1-3.44.25c-6,0-8.28-2.44-8.28-8.69V494.61h-4.84v-4.47h4.84v-7.84Z"/><path class="cls-2" d="M341.32,522.64h-5.16v-5.28H336c-1.94,3.75-5.31,5.84-10.31,5.84-7.09,0-11.25-4.59-11.25-12V490.14h5.44v20.13c0,5.28,2.47,8.13,7.5,8.13,5.28,0,8.47-3.62,8.47-9.16V490.14h5.44Z"/><path class="cls-2" d="M346.75,506.39c0-10.19,5.59-16.81,13.78-16.81a11.42,11.42,0,0,1,10.34,5.84H371V477.54h5.44v45.09h-5.19v-5.5h-.09a11.63,11.63,0,0,1-10.5,6.06C352.38,523.2,346.75,516.58,346.75,506.39Zm5.56,0c0,7.38,3.63,12,9.38,12,5.59,0,9.34-4.75,9.34-12s-3.75-12-9.34-12C355.94,494.36,352.32,499,352.32,506.39Z"/><path class="cls-2" d="M383.38,481a3.41,3.41,0,1,1,3.41,3.41A3.39,3.39,0,0,1,383.38,481Zm.69,9.19h5.44v32.5h-5.44Z"/><path class="cls-2" d="M395.25,506.39c0-10.37,6.06-16.81,15.06-16.81s15,6.44,15,16.81-6.06,16.81-15,16.81S395.25,516.73,395.25,506.39Zm24.56,0c0-7.66-3.75-12-9.5-12s-9.53,4.38-9.53,12,3.78,12,9.53,12S419.82,514,419.82,506.39Z"/><path class="cls-2" d="M430,519.39a3.56,3.56,0,1,1,3.56,3.56A3.52,3.52,0,0,1,430,519.39Z"/><path class="cls-2" d="M465,500.79a8,8,0,0,0-8.31-6.44c-5.62,0-9.44,4.66-9.44,12,0,7.56,3.88,12,9.5,12,4.44,0,7.34-2.34,8.28-6.25h5.34c-.84,6.47-6.28,11-13.66,11-9,0-15-6.34-15-16.81,0-10.25,6-16.81,14.94-16.81,8.13,0,13,5.38,13.66,11.22Z"/><path class="cls-2" d="M473.79,506.39c0-10.37,6.06-16.81,15.06-16.81s15,6.44,15,16.81-6.06,16.81-15,16.81S473.79,516.73,473.79,506.39Zm24.56,0c0-7.66-3.75-12-9.5-12s-9.53,4.38-9.53,12,3.78,12,9.53,12S498.35,514,498.35,506.39Z"/><path class="cls-2" d="M509.35,490.14h5.13v5.19h.13a9.72,9.72,0,0,1,9.22-5.75c4.44,0,7.72,2.25,9.13,6.19h.13a10.88,10.88,0,0,1,10.19-6.19c6.44,0,10.59,4.19,10.59,10.63v22.44h-5.44V501.45c0-4.44-2.47-7.06-6.75-7.06s-7.34,3.19-7.34,7.59v20.66h-5.44V500.86c0-3.91-2.62-6.47-6.66-6.47-4.31,0-7.44,3.38-7.44,7.88v20.38h-5.44Z"/></g></g></svg>