<?xml version="1.0" encoding="utf-8"?>
<!-- Generator: Adobe Illustrator 21.0.0, SVG Export Plug-In . SVG Version: 6.00 Build 0)  -->
<svg version="1.1" id="Capa_1" xmlns="http://www.w3.org/2000/svg" xmlns:xlink="http://www.w3.org/1999/xlink" x="0px" y="0px"
	 viewBox="0 0 950 950" style="enable-background:new 0 0 950 950;" xml:space="preserve">
<style type="text/css">
	.st0{fill:#FB4F14;}
</style>
<title>icono</title>
<g id="Capa_2">
	<g id="icono">
		<g id="g901-6-8">
			<path id="path903-2-7" class="st0" d="M555.6,577c-8-12.6-16.9-24.8-23.6-38c-3.9-7.7-11.4-18.5-6.4-25.9
				c4.9-7.2,18.3-5.7,25.8-3.3c57,17.9,113.9,36,170.1,56.2c46.2,16.7,71,56.3,66.8,100.4c-4.4,45.3-38.5,79-86.1,89.5
				c-12.3,2.7-26.6,12.6-33,23.4c-25.9,43.3-66.7,64.3-111.5,53.6c-44-10.5-74.4-49.4-75-98.3c-0.7-57.5-0.6-115,0.4-172.6
				c0.2-9,1.9-24.1,11.2-26.8c9.6-2.8,17.5,10.1,24.5,17c10,9.7,18.3,21,27.4,31.7L555.6,577"/>
		</g>
		<g id="g905-9-9">
			<path id="path907-1-2" class="st0" d="M402.4,583.4c9.6-11.5,18.4-23.7,29-34.2c6.2-6.1,14.1-16.6,22.7-14
				c8.4,2.5,11.1,15.7,11.1,23.5c0.5,59.7,0.8,119.4-1.2,179c-1.7,49-31.8,84.9-75.1,94.4c-44.5,9.8-87.1-12.4-111.7-54.3
				c-6.4-10.9-20.2-21.4-32.4-24.2c-49.2-11.3-81.8-43.6-85.3-89.6C156,619,183.6,578.2,230,562.5c54.5-18.4,109.3-35.9,164.4-52.7
				c8.6-2.6,23.5-5.6,29,2.4c5.5,8.1-4.3,19.7-8.6,28.5c-6.1,12.4-14.4,23.9-21.7,35.8L402.4,583.4"/>
		</g>
		<g id="g909-2-0">
			<path id="path911-7-2" class="st0" d="M521.3,477.6c-1.1,25.5-22.6,45.2-48.1,44.1c-0.7,0-1.3-0.1-1.9-0.1
				c-26.5-2-45.3-24.1-43.1-50.8c2-25.3,22.4-43.1,48.3-42.3C502.8,429.4,522.6,451,521.3,477.6"/>
		</g>
		<g id="g913-0-3">
			<path id="path915-9-7" class="st0" d="M475.5,68.5c-225.9,0.4-404.1,179-408.9,399.8c-4.9,230.1,192.2,416.6,405.3,414.1
				c225.3-2.7,405.9-180.4,410.9-399C888,257.9,695.4,61.8,475.5,68.5 M875.3,218.3c8.7,10.9,11.2,18,15.2,24.8
				c103.8,180,68.2,419.2-78.6,567.6C648.5,975.8,414.3,976.2,267,904.4C80.5,813.5-20.7,613.6,3.6,406.1
				c21.2-181,182-360.6,365.6-395.3c195.4-37,358.1,20.2,483.7,176.1C861.7,197.8,870.4,209.5,875.3,218.3"/>
		</g>
		<g id="g917-3-5">
			<path id="path919-6-9" class="st0" d="M468.6,344.9c-0.9,14.9-0.8,30-3.1,44.7c-1.3,8.6-1.6,21.7-10,24.8
				c-8.2,3-18.2-6.1-22.9-12.4c-35.7-47.8-71.3-95.8-105-145.1c-27.7-40.5-24.6-87.2,4.7-120.5c30.1-34.1,77.5-41.5,122.2-22.2
				c11.6,5,29,5.3,40.5,0.4c46.4-20,91.7-13.1,121.8,21.8c29.5,34.3,31.4,83.5,3.2,123.5c-33.1,47.1-66.9,93.6-101.4,139.7
				c-5.4,7.2-15.6,18.4-24.8,15.2c-9.4-3.4-8.3-18.4-10-28.1c-2.4-13.7-2.6-27.8-3.6-41.7H468.6z"/>
		</g>
		<g id="g921-0-2">
			<path id="path923-6-2" class="st0" d="M596.6,429.3c-14.5,3.7-28.8,8.4-43.5,10.7c-8.6,1.4-21.2,5.2-26.7-1.9
				c-5.4-6.9,0.2-19.2,4.8-25.6c34.5-48.7,69.3-97.3,105.8-144.5c30.1-38.8,75.5-50.3,116.1-32.6c41.8,18.1,63.4,61,58.8,109.4
				c-1.2,12.6,3.8,29.2,12.1,38.6c33.3,38,40.7,83.2,16.7,122.5c-23.6,38.6-69.9,55.5-116.6,41.1c-55-17-109.7-34.9-164.2-53.5
				c-8.5-2.9-22.4-9.1-22.1-18.9c0.3-9.9,15-13.5,23.7-18.1c12.3-6.5,25.7-11,38.6-16.3C599,436.6,597.8,433,596.6,429.3"/>
		</g>
		<g id="g925-2-8">
			<path id="path927-6-9" class="st0" d="M349.1,439.7c13.9,5.6,28.2,10.2,41.4,17c7.7,4,20.1,8.4,20.4,17.3
				c0.3,8.8-11.5,15.3-19,17.8c-56.6,18.8-113.4,37.5-170.8,53.9c-47.2,13.5-90.6-4.1-112.9-42.4c-23-39.3-15-86.6,17.4-123
				c8.4-9.4,14.2-25.8,13.1-38.3c-4.3-50.3,16.4-91.2,59-108.7c41.9-17.2,89.2-3.5,118.3,35.8c34.2,46.2,67.8,92.9,100.7,140.2
				c5.1,7.4,12.6,20.6,6.6,28.3s-20.1,2-29.8,0.6c-13.8-2-27.2-6.3-40.7-9.7C351.6,432.2,350.4,435.9,349.1,439.7"/>
		</g>
	</g>
</g>
</svg>
