<?xml version="1.0" encoding="utf-8"?>
<!-- Generator: Adobe Illustrator 21.0.0, SVG Export Plug-In . SVG Version: 6.00 Build 0)  -->
<svg version="1.1" id="Capa_1" xmlns="http://www.w3.org/2000/svg" xmlns:xlink="http://www.w3.org/1999/xlink" x="0px" y="0px"
	 viewBox="0 0 1274.1 194.2" style="enable-background:new 0 0 1274.1 194.2;" xml:space="preserve">
<style type="text/css">
	.st0{fill:#002244;}
	.st1{fill:#FFFAF0;}
</style>
<title>largoazul</title>
<g id="Capa_2">
	<g id="Capa_8">
		<path class="st0" d="M576.8,192.2c-1.4-1.3-2.2-3.1-2.1-5c0.1-3.8,3.2-6.9,7-7h104.5c1.9,0,3.7,0.7,5,2.1c1.3,1.3,2,3.1,2,4.9
			c0.1,3.8-3,6.9-6.8,7c-0.1,0-0.2,0-0.2,0H581.7C579.9,194.2,578.1,193.5,576.8,192.2z"/>
		<path class="st0" d="M723.6,157.1c-2.1-1.4-3.4-3.8-3.3-6.4c0-2,0.7-4,2.1-5.4c1.4-1.5,3.4-2.4,5.4-2.3c1.2,0,2.4,0.3,3.5,0.8
			c4,1.8,8.1,3.2,12.4,4.3c4.6,1.1,9.2,1.6,13.9,1.6c14.3,0,21.5-4.6,21.5-13.7c0-3-1.6-5.2-4.9-6.8c-3.3-1.5-8.7-3.3-16.2-5.2
			c-6.4-1.4-12.7-3.3-18.9-5.6c-4.9-1.9-9.3-4.9-12.8-8.8c-3.5-3.9-5.3-9.1-5.3-15.6c0-9,3.3-16.4,9.8-22.1c6.5-5.7,15.8-8.5,28-8.5
			c9.6-0.1,19.1,1.6,28.1,4.8c1.7,0.5,3.1,1.5,4.1,2.9c0.9,1.3,1.4,2.9,1.5,4.4c0,2-0.8,4-2.2,5.4c-1.4,1.5-3.4,2.4-5.5,2.3
			c-0.9,0-1.7-0.2-2.5-0.4c-7.1-2.3-14.6-3.4-22.1-3.5c-7,0-12.4,1.3-16.3,3.8c-3.9,2.5-5.9,5.8-5.9,9.8c-0.1,3.7,2,7.1,5.4,8.5
			c3.6,1.8,9.2,3.5,16.8,5.2c6.3,1.5,12.5,3.4,18.6,5.7c4.8,1.9,9,4.9,12.3,8.8c3.4,4,5.1,9.4,5.1,16.1c0.1,8-3.5,15.6-9.8,20.5
			c-6.5,5.4-15.7,8.1-27.6,8.1C746.5,165.9,734.4,163,723.6,157.1z"/>
		<path class="st0" d="M824.8,140.3v-60h-13.7c-2,0-3.7-1.6-3.7-3.6c0,0,0-0.1,0-0.1c0-1.3,0.7-2.5,1.7-3.3l26.3-25.7
			c0.8-1,2-1.6,3.3-1.7c1,0,2,0.4,2.6,1.2c0.7,0.7,1.1,1.7,1.1,2.7v15.5h21.9c4-0.2,7.4,3,7.5,7c0,0.2,0,0.4,0,0.6
			c0,2-0.7,3.9-2.1,5.3c-1.4,1.5-3.4,2.3-5.4,2.2h-21.9v58.4c0,5,1.2,8.2,3.6,9.6c2.8,1.4,5.9,2.1,9,2c2.6,0,5.2-0.4,7.7-1.2
			l1.6-0.4c0.7-0.1,1.5-0.2,2.2-0.2c1.8,0,3.6,0.7,4.8,2c1.4,1.3,2.2,3.1,2.1,4.9c0,3-1.5,5.2-4.5,6.8c-5,2.3-10.5,3.5-16.1,3.5
			C834.2,165.8,824.8,157.3,824.8,140.3z"/>
		<path class="st0" d="M908.1,160.8c-5.2-3.3-9.4-8.1-12-13.7c-2.8-6-4.2-12.5-4.2-19.2v-55c0-2.3,0.9-4.6,2.6-6.2
			c1.7-1.7,3.9-2.6,6.3-2.5c4.7-0.1,8.6,3.7,8.7,8.5c0,0.1,0,0.2,0,0.2v53c0,15.7,7.1,23.6,21.3,23.6c6.1,0.1,12.2-1.6,17.3-5
			c5.5-3.7,10.4-8.3,14.4-13.5V73c0-2.3,0.9-4.6,2.6-6.2c1.7-1.7,3.9-2.6,6.3-2.5c4.7-0.1,8.6,3.7,8.7,8.5c0,0.1,0,0.2,0,0.2v83
			c0,2.4-0.9,4.6-2.5,6.3c-1.6,1.7-3.9,2.7-6.2,2.6c-4.9,0-8.9-4-8.9-8.9v-8c-4.6,5.2-9.9,9.5-15.9,13c-5.7,3.2-12.4,4.8-20.1,4.8
			C920.1,166,913.6,164.2,908.1,160.8z"/>
		<path class="st0" d="M1099.8,24.3c-1.6-1.7-3.9-2.7-6.2-2.6c-2.3,0-4.6,0.9-6.3,2.5c-1.7,1.7-2.7,4-2.6,6.4V78
			c-9.4-9.8-20.4-14.7-33.1-14.7c-8,0-15.8,2.1-22.7,6.1c-7.3,4.2-13.3,10.4-17.4,17.8c-4.5,7.8-6.7,16.9-6.7,27.4
			c0,10.4,2.2,19.6,6.7,27.4c4.1,7.4,10.1,13.6,17.4,17.8c6.9,4,14.8,6.1,22.7,6.1c12.7,0,23.7-4.9,33.1-14.7v5
			c0,2.3,0.9,4.6,2.6,6.2c1.7,1.7,3.9,2.6,6.3,2.5c4.7,0.1,8.6-3.7,8.7-8.5c0-0.1,0-0.2,0-0.2V30.6
			C1102.3,28.2,1101.4,26,1099.8,24.3z M1084.7,134.9c-3.9,4.3-8.6,7.9-13.8,10.6c-5.2,2.6-10.9,4-16.7,4c-9.5,0-17.2-3-23-9.1
			s-8.7-14.6-8.7-25.7c0-11.1,2.9-19.7,8.7-25.7c5.8-6.1,13.5-9.1,23-9.1c5.8,0,11.6,1.4,16.7,4c5.2,2.6,9.9,6.2,13.8,10.6V134.9z"
			/>
		<path class="st0" d="M1134.2,42.2c-1.9-1.8-2.9-4.4-2.9-7v-0.8c0-5.4,4.4-9.8,9.9-9.9h1.2c5.4,0,9.8,4.4,9.9,9.9v0.8
			c0,5.4-4.4,9.8-9.9,9.9h-1.2C1138.6,45.1,1136,44,1134.2,42.2z"/>
		<path class="st0" d="M1135.4,162.3c-1.7-1.6-2.6-3.9-2.5-6.2v-83c0-2.4,0.9-4.6,2.5-6.3c1.6-1.7,3.8-2.7,6.2-2.6
			c4.8-0.2,8.7,3.6,8.9,8.3c0,0.2,0,0.4,0,0.6v83c0,2.3-0.9,4.6-2.6,6.2c-1.7,1.7-3.9,2.6-6.3,2.5
			C1139.2,164.9,1137,164,1135.4,162.3z"/>
		<path class="st0" d="M1267.9,87.7c-3.9-7.6-10-13.9-17.4-18.1c-7.5-4.3-16.1-6.4-25.9-6.4c-9.9,0-18.6,2.1-26.1,6.4
			c-7.4,4.2-13.4,10.5-17.3,18.1c-4.1,7.8-6.1,16.7-6.1,26.8s2,19,6.1,26.8c3.9,7.6,9.9,13.9,17.3,18.1c7.5,4.3,16.2,6.4,26.1,6.4
			c9.8,0,18.4-2.1,25.9-6.4c7.4-4.2,13.5-10.5,17.4-18.1c4.1-7.8,6.2-16.7,6.2-26.8S1272,95.5,1267.9,87.7z M1251.8,134.5
			c-2.8,4.9-7,9-12,11.6c-4.7,2.4-9.9,3.7-15.2,3.7c-5.3,0-10.6-1.2-15.4-3.7c-5-2.6-9.2-6.7-11.9-11.6c-3.1-5.3-4.6-12-4.6-20.1
			c0-8,1.5-14.6,4.6-19.9c2.7-4.9,6.9-8.9,11.9-11.5c4.8-2.4,10-3.6,15.4-3.6c5.3,0,10.5,1.2,15.2,3.6c5,2.6,9.2,6.6,12,11.5
			c3.2,5.3,4.7,11.9,4.7,19.9C1256.5,122.5,1254.9,129.2,1251.8,134.5z"/>
		<path class="st0" d="M3.9,159.2c-2.6-2.5-4-5.9-3.9-9.4V23.8c0-2.6,1-5.1,2.8-6.9C4.5,15,7,14,9.5,14c2.6,0,5.1,1,6.9,2.9
			c1.9,1.8,2.9,4.3,2.9,6.9v120h69.3c5.4,0,9.7,4.4,9.8,9.8c0.1,2.6-1,5-2.9,6.8c-1.8,1.8-4.3,2.8-6.9,2.8H13.4
			C9.8,163.1,6.4,161.7,3.9,159.2z"/>
		<path class="st0" d="M328.8,154.4l-52.4-127c-0.4-1.2-0.6-2.4-0.6-3.6c-0.1-2.6,0.8-5.2,2.5-7.1c1.9-1.8,4.4-2.8,7-2.6
			c2,0,3.9,0.6,5.4,1.8c1.6,1.2,2.9,2.9,3.7,4.8l49.8,124.2l49.8-124.2c0.8-1.9,2.1-3.5,3.7-4.8c1.6-1.2,3.5-1.8,5.4-1.8
			c2.6-0.1,5.1,0.8,7,2.6c1.8,1.9,2.7,4.5,2.5,7.1c0,1.2-0.2,2.4-0.6,3.6l-52.4,127c-3,6.5-7.3,9.8-13.1,9.8H342
			C336.2,164.1,331.8,160.9,328.8,154.4z"/>
		<path class="st0" d="M441.2,160.3c-1.8-1.8-2.8-4.2-2.8-6.8V24.8c0-2.6,1-5,2.8-6.9c1.8-1.9,4.2-3,6.8-2.9h50
			c15.1,0,26.8,3.5,35.1,10.4c8.3,6.9,12.4,16.3,12.4,28c0,8.2-1.9,15-5.8,20.5c-3.8,5.4-8.9,9.6-15,12.2c8,2.4,15.2,6.8,20.9,12.9
			c5.4,5.9,8.2,13.4,8.2,22.5c0,13-4.4,23.2-13.1,30.5s-22.5,11-41.3,11H448C445.4,163.1,443,162.1,441.2,160.3z M492.9,79.1
			c12.6,0,21.4-2.1,26.5-6.4S527,62.6,527,55c0.2-6.3-2.9-12.3-8.2-15.9c-5.4-4-12.9-5.9-22.4-5.9h-38.8v46L492.9,79.1z
			 M497.4,145.1c13.7,0,23.4-2.1,29.2-6.4c5.7-4.2,8.6-10.2,8.6-18c0-16.1-12.5-24.2-37.5-24.2h-39.9v48.6L497.4,145.1z"/>
		<g id="g901-6-8">
			<path id="path903-2-7" class="st1" d="M201.6,106.7c-1.5-2.3-3.1-4.6-4.4-7c-0.7-1.4-2.1-3.4-1.2-4.8s3.4-1.1,4.8-0.6
				c10.5,3.3,21.1,6.7,31.4,10.4c8.5,3.1,13.1,10.4,12.3,18.6c-0.8,8.4-7.1,14.6-15.9,16.6c-2.5,0.6-4.7,2.2-6.1,4.3
				c-4.8,8-12.3,11.9-20.6,9.9s-13.7-9.1-13.9-18.2c-0.1-10.6-0.1-21.3,0.1-31.9c0-1.7,0.3-4.4,2.1-5s3.2,1.9,4.5,3.1
				c1.9,1.8,3.4,3.9,5.1,5.8L201.6,106.7"/>
		</g>
		<g id="g905-9-9">
			<path id="path907-1-2" class="st1" d="M173.3,107.8c1.8-2.1,3.4-4.4,5.4-6.3c1.1-1.1,2.6-3.1,4.2-2.6s2,2.9,2.1,4.3
				c0.1,11,0.1,22.1-0.2,33.1c-0.3,9.1-5.9,15.7-13.9,17.4c-8.2,1.8-16.1-2.3-20.6-10c-1.4-2.2-3.5-3.8-6-4.5
				c-9.1-2.1-15.1-8.1-15.8-16.6s4.5-15.9,13-18.8c10.1-3.4,20.2-6.6,30.4-9.7c1.6-0.5,4.3-1,5.4,0.4s-0.8,3.6-1.6,5.3
				c-1.1,2.3-2.7,4.4-4,6.6L173.3,107.8"/>
		</g>
		<g id="g909-2-0">
			<path id="path911-7-2" class="st1" d="M195.3,88.3c-0.2,4.8-4.2,8.5-9,8.3c-4.8-0.2-8.5-4.2-8.3-9c0-0.2,0-0.4,0-0.6
				c0.4-4.7,4.7-8.2,9.4-7.8C192.1,79.7,195.5,83.6,195.3,88.3"/>
		</g>
		<g id="g913-0-3">
			<path id="path915-9-7" class="st1" d="M186.8,12.7c-41.1-0.1-74.8,32.8-75.6,73.9c-0.9,42.5,35.5,77,74.9,76.5
				c41.6-0.5,75-33.4,76-73.8C263.2,47.7,227.5,11.4,186.8,12.7 M260.8,40.3c1.1,1.4,2,3,2.8,4.6c19.2,33.3,12.6,77.5-14.5,104.9
				c-30.2,30.5-73.5,30.6-100.7,17.3c-34.5-16.8-53.2-53.8-48.7-92.1c3.9-33.4,33.6-66.6,67.5-73.1c36.1-6.8,66.2,3.7,89.4,32.5
				C258.1,36.4,259.5,38.3,260.8,40.3"/>
		</g>
		<g id="g917-3-5">
			<path id="path919-6-9" class="st1" d="M185.6,63.7c-0.2,2.8-0.1,5.5-0.6,8.3c-0.3,1.6-0.3,4-1.9,4.6s-3.4-1.1-4.2-2.3
				c-6.6-8.8-13.2-17.7-19.4-26.8c-5.1-7.5-4.6-16.1,0.9-22.3c5.6-6.3,14.3-7.7,22.6-4.1c2.4,0.9,5.1,1,7.5,0.1
				c8.6-3.7,17-2.4,22.5,4s5.8,15.4,0.6,22.8c-6.1,8.7-12.4,17.3-18.7,25.8c-1,1.3-2.9,3.4-4.6,2.8s-1.5-3.4-1.8-5.2
				c-0.4-2.5-0.5-5.1-0.7-7.7L185.6,63.7z"/>
		</g>
		<g id="g921-0-2">
			<path id="path923-6-2" class="st1" d="M209.2,79.4c-2.7,0.7-5.3,1.6-8,2c-1.6,0.3-3.9,1-4.9-0.3s0-3.5,0.9-4.7
				c6.4-9,12.8-18,19.6-26.7c5.6-7.2,14-9.3,21.5-6c7.7,3.3,11.7,11.3,10.9,20.2c-0.2,2.6,0.6,5.1,2.2,7.1c6.2,7,7.5,15.4,3.1,22.7
				s-12.9,10.3-21.6,7.6c-10.2-3.1-20.3-6.4-30.3-9.9c-1.6-0.5-4.1-1.7-4.1-3.5s2.8-2.5,4.4-3.3c2.3-1.2,4.7-2,7.1-3l-0.7-2"/>
		</g>
		<g id="g925-2-8">
			<path id="path927-6-9" class="st1" d="M163.5,81.3c2.6,1,5.2,1.9,7.7,3.2c1.4,0.7,3.7,1.6,3.8,3.2s-2.1,2.8-3.5,3.3
				c-10.5,3.5-21,6.9-31.6,10c-8.7,2.5-16.7-0.8-20.9-7.8c-4.2-7.3-2.8-16,3.2-22.7c1.6-2,2.5-4.5,2.4-7.1
				c-0.8-9.3,3-16.8,10.9-20.1s16.5-0.6,21.9,6.6c6.3,8.5,12.5,17.1,18.6,25.9c0.9,1.4,2.3,3.8,1.2,5.2s-3.7,0.4-5.5,0.1
				c-2.5-0.4-5-1.2-7.5-1.8L163.5,81.3"/>
		</g>
	</g>
</g>
</svg>
